<svg viewBox="16.75 19.1 13.1 13.1">
	<defs>
		<linearGradient id="xw9ec" x1="24" x2="24" y1="9" y2="39" gradientUnits="userSpaceOnUse"><stop offset="0" stop-color="#5fbc51"/><stop offset="1" stop-color="#5ac178"/>
		</linearGradient>
	</defs>
	<path transform="rotate(45 23.5 25)" fill="url(#xw9ec)" d="M18 25.88c0-3.381 5.273-8.88 5.273-8.88s6.969 5.499 6.969 8.88c0 3.001-2.162 5.499-5.014 6.02l-.308-3.026 1.703-2.642-1.95 1.596-.021-2.274 1.002-1.564-1.315.714-.816-2.844.176 3.061-1.343-.23 1.494 1.103.128 2.138-1.9-.968 1.907 1.906.327 3.127A6.12 6.12 0 0 1 18 25.88z"/>
</svg>