<svg viewBox="16.9 16.9 14.2 14.2">
	<defs>
		<linearGradient id="xw9ec" x1="24" x2="24" y1="9" y2="39" gradientUnits="userSpaceOnUse"><stop offset="0" stop-color="#f66f71"/><stop offset="1" stop-color="#fe9f92"/>
		</linearGradient>
	</defs>
	<path fill="url(#xw9ec)" d="M29.475 28.626s-1.766 1.416-5.279.83c-2.665-.444-4.086-3.382-4.086-4.962 0-3.744 2.77-4.596 4.644-4.596s3.096 1.827 3.096 3.24c0 1.415-1 2.652-2.557 2.652-1.556 0-2.017-1.093-2.017-2.097 0-1.005.812-1.359 1.554-1.359.741 0 .995.633.995 1.177s-.422.739-.774.739c-.352 0-.387-.178-.522-.365-.135-.186.172-.893-.333-.893-.504 0-.599.812-.599.812s.184 1.568 1.696 1.541c1.512-.027 2.229-1.196 2.02-2.353-.208-1.157-1.33-2.386-3.302-2.138-1.97.249-2.775 2.24-2.42 4.368.354 2.128 2.904 3.36 4.908 2.917 2.005-.443 4.001-1.894 4.001-5.574 0-3.679-3.186-5.89-6.986-5.526-3.8.365-6.158 3.686-6.007 7.678.15 3.99 3.938 6.165 7.14 6.277 3.203.112 5.166-1.742 5.166-1.742s.442-.394.269-.701c-.173-.308-.607.075-.607.075z"/>
</svg>