<svg viewBox="16 16 16 16">
	<defs>
		<linearGradient id="xw9ec" x1="24" x2="24" y1="9" y2="39" gradientUnits="userSpaceOnUse"><stop offset="0" stop-color="#0c69c8"/><stop offset="1" stop-color="#0180c7"/>
		</linearGradient>
	</defs>
	<path fill="url(#xw9ec)" d="M31 25.607C31 29.137 28.074 32 24.464 32c-2.952 0-5.446-1.913-6.258-4.54a2.715 2.715 0 0 1-.047-.25c-.084-.614-.084-1.04.125-.964.115.042.346.806.692 1.433.28.506.692.907.739.883.057-.03-.238-.41-.441-.773-.17-.304-.286-.62-.133-.66.185-.048.582.572 1.022 1.062.358.398.782.685.843.654.076-.038-.186-.354-.362-.654-.143-.241-.264-.44-.145-.512.254-.155 1.003.85 1.122.75.12-.1-.246-.555.067-.599.105-.014.313.148.693.328.453.336 1.019.535 1.632.535 1.494 0 2.705-1.184 2.705-2.645 0-1.1-.687-2.043-1.663-2.442-.074.154-.166.293-.275.359-.318.194-.27.134-.79.24-.52.104-6.331 1.438-6.331 1.438s-.433.041-.612-.142c-.18-.183.325-1.086.325-1.086s1.56-2.814 1.996-3.239c.185-.18 1.688-1.177 3.233-2.524.503-.438 1.39-1.26 1.916-1.918.264-.33.366-.734.759-.734.569 0 .45.709.418 1.016-.032.307-.626 1.746-.626 1.746s-.083.314-.087.472c3.368.258 6.019 3.013 6.019 6.373zm-9.666-2.795c.53-.503.408-1.361.408-1.361s-.758.505-1.07.801c-.312.296-.83 1.004-.83 1.004s.962.06 1.492-.444z"/>
</svg>