<svg viewBox="16.5 16.52 15 15">
	<defs>
		<linearGradient id="xw9ec" x1="24" x2="24" y1="9" y2="39" gradientUnits="userSpaceOnUse"><stop offset="0" stop-color="#ec8ce5"/><stop offset="1" stop-color="#f3a7e7"/>
		</linearGradient>
	</defs>
	<path fill="url(#xw9ec)" d="M19.77 28.454a.243.243 0 0 1-.3-.302l.601-2.031-3.443-1.883a.243.243 0 0 1 0-.426l3.472-1.898-.63-2.13a.243.243 0 0 1 .3-.302l2.13.618 1.882-3.442a.243.243 0 0 1 .426 0l1.883 3.445 2.139-.62a.243.243 0 0 1 .3.301l-.631 2.134 3.463 1.894a.243.243 0 0 1 0 .426l-3.434 1.878.602 2.036a.243.243 0 0 1-.3.302l-2.085-.605-1.937 3.543a.243.243 0 0 1-.426 0l-1.936-3.54zm4.043-2.036a.243.243 0 0 0 .425 0l.76-1.39 1.39-.76a.243.243 0 0 0 0-.425l-1.39-.76-.76-1.39a.243.243 0 0 0-.426 0l-.76 1.39-1.39.76a.243.243 0 0 0 0 .425l1.39.76z"/>
</svg>