<svg viewBox="16.5 17 15 15">
	<defs>
		<linearGradient id="xw9ec" x1="24" x2="24" y1="9" y2="39" gradientUnits="userSpaceOnUse"><stop offset="0" stop-color="#ce4265"/><stop offset="1" stop-color="#e74347"/>
		</linearGradient>
	</defs>
	<path fill="url(#xw9ec)" d="M17 25.625c0-1.7.73-3.244 1.92-4.386-.002 1.656.026 3.37.155 3.34.387-.089 0-6.547 0-6.547l-.039.055V18a1 1 0 0 1 1-1h1.31a1 1 0 0 1 .94.657.999.999 0 0 1 .805-.407H24.4a1 1 0 0 1 .993.882.995.995 0 0 1 .498-.132H27.2a1 1 0 0 1 1 1h.018c.082 0 .16.01.237.028.075-.018.154-.028.236-.028H30a1 1 0 0 1 1 1v6.093a1 1 0 0 1-.053.322C30.519 29.563 27.572 32 24 32c-3.866 0-7-2.854-7-6.375z"/>
</svg>