<svg viewBox="17 17 15 15">
	<defs>
		<linearGradient id="xw9ec" x1="24" x2="24" y1="9" y2="39" gradientUnits="userSpaceOnUse"><stop offset="0" stop-color="#90a7da"/><stop offset="1" stop-color="#a6c2f2"/>
		</linearGradient>
	</defs>
	<path fill="url(#xw9ec)" d="M22.236 31c2.197 0 4.078-1.221 4.855-2.952.01-.022-3.118.812-3.018.518.044-.132 1.961-.832 3.358-1.65.803-.469 1.173-1.463 1.173-1.463s-1.353.657-2.037.823c-1.378.336-2.59.3-2.59.265 0-.076 2.014-.458 4.813-2.164 1.316-.802 1.674-2.185 1.674-2.185s-1.448.863-2.323 1.147c-2.075.676-3.969.879-3.969.788 0-.196 1.667-.654 3.434-1.51.919-.446 1.714-1.027 2.636-1.674C31.752 19.885 32 18 32 18s-1.488.96-2.214 1.279c-2.997 1.315-5.643 2.005-7.55 2.154-2.88.225-5.236 2.235-5.236 4.843C17 28.886 19.344 31 22.236 31z"/>
</svg>