<svg viewBox="16.2 15.9 16.2 16.2">
	<defs>
		<linearGradient id="xw9ec" x1="24" x2="24" y1="9" y2="39" gradientUnits="userSpaceOnUse"><stop offset="0" stop-color="#a864c7"/><stop offset="1" stop-color="#c261d4"/>
		</linearGradient>
	</defs>
	<path fill="url(#xw9ec)" d="M17 23.62c0-3.656 3.358-6.62 7.5-6.62 4.142 0 7.5 2.964 7.5 6.62 0 1.946-.951 3.696-2.466 4.907.063.26.098.537.098.825 0 1.463-.884 2.648-1.974 2.648-.648 0-1.224-.42-1.584-1.067-.358.648-.932 1.067-1.579 1.067-.706 0-1.326-.5-1.673-1.252-.348.752-.97 1.252-1.677 1.252-1.09 0-1.974-1.185-1.974-2.648 0-.338.047-.661.133-.958C17.884 27.189 17 25.495 17 23.62zm7.401 3.492c2.453 0 4.441-1.505 4.441-3.361 0-1.856-1.988-3.36-4.44-3.36-2.453 0-4.441 1.504-4.441 3.36 0 1.856 1.988 3.36 4.44 3.36z"/>
</svg>