<svg viewBox="17 17 14 14">
	<defs>
		<linearGradient id="xw9ec" x1="24" x2="24" y1="9" y2="39" gradientUnits="userSpaceOnUse"><stop offset="0" stop-color="#c5b489"/><stop offset="1" stop-color="#d7cd90"/>
		</linearGradient>
	</defs>
	<path fill="url(#xw9ec)" d="M17 24.593c0-.043.015-.084.042-.117l4.469-5.385a.183.183 0 0 1 .14-.066h5.753a.183.183 0 0 1 .18.21l-.69 4.623a.183.183 0 0 1-.076.123l-6.686 4.611a.183.183 0 0 1-.16.023l-2.846-.929a.183.183 0 0 1-.126-.174zm9.993.437a.183.183 0 0 1 .255.049L28.54 27a.183.183 0 0 1-.045.25l-3.756 2.695a.183.183 0 0 1-.163.025l-3.249-1.064zM28.7 19h.29L31 25.364l-1.487 1.162-1.66-2.26a.183.183 0 0 1-.032-.14z"/>
</svg>