<svg viewBox="16.5 16.75 15 15">
	<defs>
		<linearGradient id="xw9ec" x1="24" x2="24" y1="9" y2="39" gradientUnits="userSpaceOnUse"><stop offset="0" stop-color="#52869d"/><stop offset="1" stop-color="#58a6aa"/>
		</linearGradient>
	</defs>
	<path fill="url(#xw9ec)" d="M20.14 18.184A.373.373 0 0 1 20.46 18h7.116c.133 0 .256.07.323.186l3.549 6.13a.373.373 0 0 1 0 .374l-3.55 6.124a.373.373 0 0 1-.322.186h-7.116a.373.373 0 0 1-.322-.184l-3.588-6.124a.373.373 0 0 1 0-.377zM24 28a3.5 3.5 0 1 0 0-7 3.5 3.5 0 0 0 0 7z"/>
</svg>