<?xml version="1.0" encoding="iso-8859-1"?>
<!-- Generator: Adobe Illustrator 19.0.0, SVG Export Plug-In . SVG Version: 6.00 Build 0)  -->
<svg version="1.1" id="Capa_1" xmlns="http://www.w3.org/2000/svg" xmlns:xlink="http://www.w3.org/1999/xlink" x="0px" y="0px"
	 viewBox="0 0 480.273 480.273" style="enable-background:new 0 0 480.273 480.273;" xml:space="preserve">
<g>
	<g>
		<path d="M408.137,312.273h-4.12c-14.86-0.038-29.118,5.867-39.6,16.4l-3.2,3.2c-37.619-52.721-65.877-111.527-83.536-173.84
			c4.726-11.766,7.863-24.109,9.328-36.704c25.356,20.096,56.774,31.004,89.128,30.944c4.418,0,8-3.582,8-8
			C384.02,65.82,321.168,1.873,242.729,0.401c-0.618-0.196-1.257-0.317-1.904-0.36c-0.28,0-0.552-0.048-0.8-0.04
			c-0.855,0.028-1.701,0.192-2.504,0.488c-0.076,0.015-0.15,0.034-0.224,0.056c-0.876,0.384-1.673,0.926-2.352,1.6
			c-0.072,0.072-0.176,0.088-0.248,0.16c-11.936,11.965-21.659,25.949-28.72,41.304c-56.304,88.376-89.488,188.24-93.392,282.112
			c-22.314-19.041-55.52-17.717-76.248,3.04l-3.712,3.712c-10.594,10.53-16.531,24.863-16.488,39.8v11.12
			c-0.004,53.501,43.363,96.876,96.864,96.88c0.003,0,0.005,0,0.008,0h14.256c53.5-0.009,96.868-43.38,96.872-96.88v-15.12
			c0-30.928-25.072-56-56-56h-4.12c-12.909-0.033-25.428,4.428-35.408,12.616c4.772-79.245,26.676-156.512,64.2-226.472
			c-1.71,40.111,13.462,79.105,41.832,107.512c3.122,3.126,8.188,3.129,11.314,0.006c0.002-0.002,0.004-0.004,0.006-0.006
			c8.146-8.206,15.282-17.356,21.256-27.256c14.996,47.655,36.097,93.169,62.776,135.408c-4.526-1.172-9.18-1.779-13.856-1.808
			c-14.936-0.04-29.268,5.897-39.8,16.488l-3.712,3.712c-10.594,10.53-16.531,24.863-16.488,39.8v11.12
			c-0.004,53.501,43.363,96.876,96.864,96.88c0.003,0,0.005,0,0.008,0h14.256c53.5-0.009,96.868-43.38,96.872-96.88v-15.12
			C464.137,337.345,439.065,312.273,408.137,312.273z M135.729,339.993c7.487-7.526,17.672-11.746,28.288-11.72h4.12
			c22.091,0,40,17.909,40,40v15.12c-0.004,44.664-36.208,80.871-80.872,80.88h-14.256c-44.664,0-80.872-36.208-80.872-80.872
			c0-0.003,0-0.005,0-0.008v-11.12c-0.032-10.691,4.218-20.951,11.8-28.488l3.712-3.712c15.733-15.734,41.242-15.734,56.976,0
			c0,0,0,0,0,0l9.848,9.848c3.12,3.128,8.186,3.135,11.314,0.014c0.005-0.005,0.01-0.01,0.014-0.014L135.729,339.993z
			 M367.873,136.009L367.873,136.009c-29.924-1.891-58.218-14.293-79.888-35.016c-0.261-13.852-2.522-27.594-6.712-40.8
			l57.704,57.704l11.32-11.312l-88.384-88.344C320.171,28.353,363.949,77.01,367.873,136.009z M240.305,188.593
			c-33.015-37.717-41.022-91.214-20.496-136.944c4.037-6.32,8.203-12.579,12.496-18.776v119.064h16V29.753
			C282.846,78.134,279.532,143.928,240.305,188.593z M448.137,383.393c-0.004,44.664-36.208,80.871-80.872,80.88h-14.256
			c-44.664,0-80.872-36.208-80.872-80.872c0-0.003,0-0.005,0-0.008v-11.12c-0.032-10.691,4.218-20.951,11.8-28.488l3.712-3.712
			c15.733-15.734,41.242-15.734,56.976,0c0,0,0,0,0,0l9.856,9.856c3.174,3.001,8.138,3.001,11.312,0l9.936-9.936
			c7.487-7.526,17.672-11.746,28.288-11.72h4.12c22.091,0,40,17.909,40,40V383.393z"/>
	</g>
</g>
<g>
</g>
<g>
</g>
<g>
</g>
<g>
</g>
<g>
</g>
<g>
</g>
<g>
</g>
<g>
</g>
<g>
</g>
<g>
</g>
<g>
</g>
<g>
</g>
<g>
</g>
<g>
</g>
<g>
</g>
</svg>
