<svg height="507pt" viewBox="0 -55 507.31364 507" width="507pt" xmlns="http://www.w3.org/2000/svg"><path d="m121.9375 183.921875c2.996094-3.632813 2.484375-9.003906-1.144531-12.007813-31.804688-26.253906-65.554688-55.019531-85.863281-73.386718 70.179687 15.691406 143.128906 13.957031 212.480468-5.050782 4.230469-1.628906 6.449219-6.277343 5.054688-10.589843-1.394532-4.3125-5.921875-6.78125-10.300782-5.621094-75.347656 19.988281-154.695312 19.289063-229.675781-2.03125-4.285156-1.535156-9.046875.273437-11.230469 4.265625-3.898437 7.382812-5.863281 11.09375 108.664063 105.609375 1.746094 1.441406 3.992187 2.128906 6.246094 1.914063 2.25-.210938 4.328125-1.3125 5.769531-3.058594zm0 0"/><path d="m319.707031 266.378906-12.265625 9.105469c-2.929687 2.199219-4.132812 6.027344-2.980468 9.503906 1.148437 3.480469 4.394531 5.839844 8.058593 5.855469 1.832031-.003906 3.609375-.601562 5.070313-1.707031l12.269531-9.0625c3.792969-2.800781 4.59375-8.148438 1.789063-11.941407-2.804688-3.789062-8.152344-4.589843-11.941407-1.789062zm0 0"/><path d="m498.648438 128.394531c-6.125.070313-12.214844-.960937-17.980469-3.046875 1.019531-5.761718 1.554687-11.601562 1.597656-17.457031 0-59.5-48.234375-107.734375-107.734375-107.734375s-107.734375 48.234375-107.734375 107.734375c0 2.738281.171875 5.402344.367187 8.046875-3.640624-.28125-7.285156-.554688-10.996093-.554688-59.378907-.140624-112.476563 36.929688-132.804688 92.71875-20.328125 55.785157-3.527343 118.328126 42.019531 156.421876 45.546876 38.089843 110.078126 43.5625 161.386719 13.6875.546875 1.644531 1.101563 3.273437 1.65625 4.929687 1.152344 3.503906 4.421875 5.871094 8.105469 5.871094 3.6875 0 6.957031-2.367188 8.109375-5.871094 1.894531-6.113281 2.613281-12.527344 2.117187-18.910156 17.964844-15.117188 31.886719-34.472657 40.503907-56.320313 12.601562.484375 25.195312-1.101562 37.285156-4.691406 3.988281-1.3125 6.429687-5.328125 5.757813-9.472656-.671876-4.144532-4.257813-7.183594-8.457032-7.167969-9.261718.144531-18.464844-1.53125-27.082031-4.941406 4.214844-22.414063 2.839844-45.519531-4.003906-67.277344 12.449219-1.835937 24.472656-5.882813 35.5-11.945313l.390625 1.160157c1.152344 3.503906 4.421875 5.867187 8.109375 5.867187 3.683593 0 6.953125-2.363281 8.105469-5.867187 1.394531-4.472657 1.972656-9.160157 1.707031-13.839844 13.050781-11.125 23.242187-25.21875 29.722656-41.097656 9.164063.277343 18.3125-.933594 27.089844-3.582031 4.027343-1.292969 6.5-5.339844 5.8125-9.511719-.683594-4.171875-4.324219-7.210938-8.550781-7.148438zm-33.910157-12.542969c-3.414062-2.824218-6.597656-5.972656-9.890625-9.222656.136719-6.085937 1.355469-12.09375 3.601563-17.75.851562-2.730468 1.707031-5.546875 2.484375-8.414062 2.824218 8.867187 4.265625 18.117187 4.265625 27.425781 0 2.703125-.230469 5.332031-.460938 7.960937zm-26.308593 19.378907c-.71875.238281-1.402344.574219-2.03125.992187-6.605469 4.121094-11.050782 10.957032-12.144532 18.667969-2.628906-4.03125-5.660156-7.789063-9.042968-11.210937-.9375-.9375-2.082032-1.640626-3.335938-2.058594-3.578125-1.183594-7.324219-1.78125-11.09375-1.765625-4.5625.074219-9.09375.742187-13.484375 1.988281 9.878906-10.28125 13.992187-24.796875 10.984375-38.730469-.910156-2.851562-2.066406-5.621093-3.457031-8.269531 2.558593 1.519531 5.121093 3.011719 7.722656 4.4375 11.003906 6.027344 24.761719 3.058594 32.296875-6.972656 2.210938-2.859375 4.613281-5.5625 7.195312-8.089844-3.480468 11.28125-6.691406 21.921875-2.148437 31 .410156.824219.953125 1.570312 1.601563 2.21875 4.953124 5.179688 10.265624 10.003906 15.890624 14.441406-6.441406.257813-12.816406 1.386719-18.953124 3.351563zm-154.566407-27.339844c-.015625-38.585937 24.414063-72.949219 60.863281-85.609375 36.449219-12.664062 76.917969-.851562 100.828126 29.433594-3.082032 7.121094-7.75 13.441406-13.652344 18.476562-3.886719 3.703125-7.488282 7.695313-10.769532 11.945313-2.464843 3.191406-6.890624 4.105469-10.417968 2.148437-3.414063-1.851562-6.65625-3.8125-9.933594-5.773437-8.542969-5.542969-17.6875-10.09375-27.257812-13.570313-3.28125-1.105468-6.910157-.117187-9.175782 2.503906-2.265625 2.621094-2.722656 6.351563-1.15625 9.441407 2.648438 5.003906 5.679688 9.796875 9.0625 14.335937 4.097656 5.164063 7.390625 10.917969 9.761719 17.070313 2.347656 7.457031-3.207031 18.199219-9.914063 24.957031-6.460937 6.671875-14.386718 11.75-23.144531 14.832031-.601562.230469-1.175781.53125-1.707031.894531-17.988281-15.332031-39.554688-25.878906-62.703125-30.667968-.429687-3.457032-.65625-6.933594-.683594-10.417969zm91.230469 183.003906c-11.089844-.167969-22.136719 1.402344-32.742188 4.652344-.71875.246094-1.402343.582031-2.039062 1-10.660156 6.976563-16.601562 19.265625-15.453125 31.957031-4.40625-8.1875-9.941406-15.714844-16.445313-22.359375-.933593-.9375-2.078124-1.644531-3.335937-2.066406-4.476563-1.472656-9.167969-2.214844-13.882813-2.191406-9.53125.429687-18.9375 2.378906-27.851562 5.777343l1.058594-.980468c4.972656-4.5625 9.386718-9.699219 13.148437-15.300782 3.773438-5.996093 6.433594-12.621093 7.859375-19.558593 2.753906-14.515625-.960937-29.511719-10.171875-41.0625 1.882813 1.136719 3.777344 2.277343 5.683594 3.414062 6.101563 3.660157 12.398437 7.441407 19.148437 10.828125 11.683594 5.628906 25.726563 1.722656 32.828126-9.128906 4.125-5.695312 8.785156-10.976562 13.917968-15.78125 1.816406-1.816406 3.644532-3.640625 5.453125-5.519531-.964843 3.488281-2.058593 7.015625-3.132812 10.511719-4.523438 14.660156-8.796875 28.503906-3.191407 39.722656.410157.820312.953126 1.570312 1.605469 2.21875 8.289063 8.882812 17.554688 16.800781 27.621094 23.605468zm-118.925781 89.386719c-58.140625.101562-108.535157-40.226562-121.175781-96.976562-12.636719-56.75 15.871093-114.65625 68.558593-139.238282 52.683594-24.585937 115.378907-9.238281 150.75 36.902344-.078125.179688-.207031.324219-.265625.511719-4.21875 10.253906-10.828125 19.351562-19.277344 26.53125-5.921874 5.566406-11.285156 11.699219-16.007812 18.3125-2.257812 3.785156-7.007812 5.257812-11.007812 3.414062-6.171876-3.097656-11.949219-6.554687-18.023438-10.242187-11.234375-7.28125-23.257812-13.269532-35.839844-17.851563-3.285156-1.105469-6.910156-.113281-9.175781 2.507813-2.269531 2.617187-2.726563 6.351562-1.15625 9.441406 3.371094 6.28125 7.210937 12.296875 11.492187 17.996094 8.6875 12.175781 16.878907 23.6875 13.800782 36.148437-.960938 5.039063-2.835938 9.863281-5.53125 14.230469-3.027344 4.5-6.578125 8.625-10.574219 12.289062-8.53125 8.183594-18.714844 14.449219-29.867187 18.382813-3.5 1.148437-5.867188 4.417969-5.867188 8.105469s2.367188 6.957031 5.867188 8.105468c15.5 5.164063 30.535156.144532 43.792968-4.265624 9.746094-4.433594 20.523438-6.09375 31.148438-4.804688 10.421875 12.34375 18.300781 26.628906 23.183594 42.027344-19.464844 12.074218-41.917969 18.472656-64.824219 18.472656zm87.722656-36.488281c-2.859375-16.085938-3.824219-25.898438 5-32.425781 6.398437-1.871094 13.011719-2.929688 19.675781-3.148438-6.082031 13.210938-14.433594 25.25-24.675781 35.574219zm16.917969-87.660157c-.464844-8.917968 1.121094-17.820312 4.636718-26.027343 2.171876-6.695313 3.992188-13.5 5.460938-20.386719 8.246094 19.847656 11.007812 41.542969 8.003906 62.820312-6.40625-5.042968-12.453125-10.523437-18.101562-16.40625zm23.492187-58.300781c-5.28125-11.5625-12.097656-22.363281-20.265625-32.101562 6.527344-.84375 12.9375-2.425781 19.105469-4.710938 6.742187-3.046875 14.152344-4.320312 21.523437-3.695312 7.003907 8.453125 12.363282 18.136719 15.8125 28.5625-11.050781 6.554687-23.394531 10.632812-36.175781 11.945312zm57.386719-29.152343c-1.414062-9.257813-1.082031-14.171876 3.347656-17.621094 3.34375-.957032 6.773438-1.582032 10.238282-1.859375-3.664063 7.0625-8.242188 13.609375-13.617188 19.472656zm0 0"/><path d="m430.382812 120.179688c0 4.710937-3.820312 8.53125-8.535156 8.53125-4.710937 0-8.53125-3.820313-8.53125-8.53125 0-4.714844 3.820313-8.535157 8.53125-8.535157 4.714844 0 8.535156 3.820313 8.535156 8.535157zm0 0"/><path d="m177.796875 190.152344c-1.589844 1.183594-38.621094 29.867187-20.15625 94.503906 1.046875 3.664062 4.398437 6.191406 8.207031 6.1875.796875.003906 1.585938-.109375 2.347656-.332031 2.179688-.621094 4.019532-2.078125 5.121094-4.058594 1.101563-1.976563 1.371094-4.3125.75-6.488281-15.042968-52.71875 12.691406-75.160156 14.011719-76.160156 3.769531-2.839844 4.523437-8.199219 1.6875-11.96875-2.839844-3.769532-8.199219-4.523438-11.96875-1.683594zm0 0"/><path d="m217.050781 171.378906c0 4.710938-3.820312 8.53125-8.535156 8.53125-4.710937 0-8.53125-3.820312-8.53125-8.53125 0-4.714844 3.820313-8.535156 8.53125-8.535156 4.714844 0 8.535156 3.820312 8.535156 8.535156zm0 0"/></svg>