<svg height="496pt" viewBox="0 0 496 496" width="496pt" xmlns="http://www.w3.org/2000/svg"><path d="m335.9375 448v16c5.777344 0 11.558594-.34375 17.207031-1.023438l-1.917969-15.886718c-5.007812.605468-10.152343.910156-15.289062.910156zm0 0"/><path d="m366.226562 444.34375 3.839844 15.527344c5.757813-1.429688 11.453125-3.230469 16.925782-5.367188l-5.816407-14.902344c-4.824219 1.886719-9.863281 3.488282-14.949219 4.742188zm0 0"/><path d="m447.9375 349.566406c0 33.761719-19.425781 64.800782-51.960938 83.050782l7.832032 13.949218c37.648437-21.109375 60.128906-57.375 60.128906-97 0-1.980468-.066406-3.957031-.167969-5.925781l-15.96875.886719c.089844 1.671875.136719 3.351562.136719 5.039062zm0 0"/><path d="m235.257812 279.0625c-17.871093 20.28125-27.320312 44.664062-27.320312 70.503906l.03125 2.664063 16-.46875-.03125-2.195313c0-21.886718 8.0625-42.613281 23.320312-59.925781 8.4375-9.570313 19.757813-15.304687 33.671876-17.039063l-1.984376-15.875c-17.648437 2.195313-32.761718 9.921876-43.6875 22.335938zm0 0"/><path d="m364.449219 225.367188c4.351562-18.214844 11.414062-29.320313 19.199219-41.519532 2.800781-4.382812 5.664062-8.878906 8.511718-13.824218 4.296875-7.449219 13.992188-17.472657 24.265625-28.078126 6.429688-6.640624 13.445313-14.113281 20.269531-21.867187l16.609376 16.609375c4.65625 4.648438 11.089843 7.3125 17.664062 7.3125 13.769531 0 24.96875-11.199219 24.96875-24.96875 0-6.574219-2.664062-13.007812-7.3125-17.65625l-94.0625-94.0625c-4.648438-4.648438-11.082031-7.3125-17.65625-7.3125-13.769531 0-24.96875 11.199219-24.96875 24.96875 0 6.574219 2.664062 13.007812 7.3125 17.65625l14.558594 14.558594c-28.71875 17.488281-56.878906 24.984375-76.085938 30.015625l-5.800781 1.527343c-26.144531 7-57.402344 15.441407-94.5625 43.082032-20.199219-28.761719-51.445313-45.257813-83.320313-43.695313-30.492187 1.589844-58.671874 13.847657-79.34375 34.519531-50.078124 50.078126-45.390624 136.261719 10.464844 192.128907 29.265625 29.253906 67.359375 45.191406 105.144532 45.183593 8.734374 0 17.464843-.882812 26.054687-2.625 4.457031 77.136719 74.21875 138.679688 159.578125 138.679688 88.222656 0 160-65.6875 160-146.433594 0-33.261718-12.535156-65.824218-35.304688-91.65625-23.320312-26.46875-58.617187-38.199218-96.183593-32.542968zm40.480469-94.542969c-11.457032 11.832031-21.34375 22.046875-26.625 31.199219-2.726563 4.730468-5.472657 9.023437-8.152344 13.207031-12.207032 19.144531-23.75 37.21875-25.863282 81.328125-.199218 4.175781-3.535156 7.441406-8.390624 7.441406-2.113282 0-4.089844-.839844-5.546876-2.375-1.421874-1.496094-2.160156-3.433594-2.0625-5.457031 2.199219-47.609375 14.632813-67.433594 27.792969-88.425781 2.800781-4.453126 5.605469-8.941407 8.375-13.726563 4.28125-7.429687 14.390625-17.175781 25.089844-27.503906 8.589844-8.289063 18.039063-17.503907 26.382813-27.222657l9.449218 9.445313c-6.691406 7.679687-13.625 15.035156-20.449218 22.089844zm-89.695313 95.929687c-15.34375-3.265625-30.554687-3.5625-44.890625-1.121094-4.132812-22.609374-17.015625-43.359374-36.671875-58.9375 25.738281-18.296874 47.648437-25.429687 70.679687-31.605468l5.394532-1.425782c19.40625-5.105468 49.375-13.144531 81.175781-30.945312-4.207031 4.242188-8.449219 8.386719-12.488281 12.28125-12.03125 11.609375-22.425782 21.640625-27.832032 31.015625-2.65625 4.609375-5.375 8.9375-8.074218 13.222656-10.847656 17.296875-21.949219 35.105469-27.292969 67.515625zm52.703125-201.785156c0-4.945312 4.023438-8.96875 8.96875-8.96875 2.359375 0 4.671875.953125 6.34375 2.625l94.0625 94.0625c1.671875 1.671875 2.625 3.984375 2.625 6.34375 0 4.945312-4.023438 8.96875-8.96875 8.96875-2.359375 0-4.671875-.953125-6.34375-2.625l-94.0625-94.0625c-1.671875-1.671875-2.625-3.984375-2.625-6.34375zm-71.863281 79.214844 5.710937-1.503906c20.871094-5.464844 51.824219-13.726563 83.640625-33.886719l11.550781 11.550781c-34.824218 22.824219-68.488281 31.855469-91.296874 37.847656l-5.46875 1.449219c-32.714844 8.765625-65.65625 20.085937-108.898438 61.757813-1.710938 1.65625-3.984375 2.601562-6.511719 2.601562-4.886719 0-8.863281-3.976562-8.863281-8.863281 0-2.433594.976562-4.769531 2.679688-6.402344 47.65625-45.847656 84.734374-55.78125 117.457031-64.550781zm-239.59375 199.273437c-49.609375-49.625-54.304688-125.65625-10.457031-169.503906 18.136718-18.128906 41.945312-28.449219 68.859374-29.847656 27.09375-1.480469 52.671876 12.664062 69.804688 37.710937-5.589844 4.679688-11.300781 9.75-17.160156 15.382813-4.824219 4.632812-7.589844 11.167969-7.589844 17.9375 0 13.703125 11.160156 24.863281 25.136719 24.863281 6.453125 0 12.613281-2.511719 17.351562-7.089844 6.261719-6.03125 12.230469-11.300781 18.023438-16.0625 18.695312 13.625 30.863281 32.289063 34.3125 52.617188-16.785157 5.519531-31.777344 15.109375-43.511719 28.445312-20.785156 23.59375-32.929688 52.792969-34.898438 83.019532-41.375 9.589843-86.796874-4.425782-119.871093-37.472657zm279.457031 176.542969c-79.402344 0-144-58.503906-144-130.433594 0-29.796875 10.832031-57.832031 31.304688-81.078125 21.167968-24.03125 55.175781-33.617187 89.976562-25.816406-.378906 4.070313-.707031 8.265625-.914062 12.761719-.296876 6.429687 2.007812 12.550781 6.480468 17.230468 4.441406 4.664063 10.679688 7.335938 17.902344 7.335938 12.609375 0 22.96875-9.953125 23.585938-22.671875.261718-5.472656.6875-10.441406 1.238281-15.0625 34.160156-6.777344 66.417969 2.726563 87.121093 26.230469 20.472657 23.238281 31.304688 51.28125 31.304688 81.070312 0 71.929688-64.601562 130.433594-144 130.433594zm0 0"/><path d="m61.785156 164.59375-12.921875-9.441406c-28.414062 38.871094-20.269531 97.769531 18.9375 136.984375 7.28125 7.277343 15.457031 13.65625 24.289063 18.941406l8.214844-13.734375c-7.710938-4.609375-14.839844-10.167969-21.191407-16.519531-33.679687-33.6875-41.128906-83.65625-17.328125-116.230469zm0 0"/><path d="m90.855469 141.734375-6.140625-14.78125c-6.273438 2.605469-12.210938 5.949219-17.65625 9.957031l9.488281 12.890625c4.40625-3.242187 9.222656-5.960937 14.308594-8.066406zm0 0"/><path d="m115.730469 120.070312c-4.53125.242188-9.015625.785157-13.335938 1.601563l3 15.71875c3.605469-.6875 7.367188-1.144531 11.125-1.335937.707031-.03125 1.417969-.054688 2.113281-.054688l1.160157.015625.296875-16-1.457032-.015625c-.945312 0-1.902343.023438-2.902343.070312zm0 0"/></svg>