<svg id="Layer_5" enable-background="new 0 0 64 64" height="512" viewBox="0 0 64 64" width="512" xmlns="http://www.w3.org/2000/svg"><g><path d="m58.987 48.951-1.998.098c.007.143.011.286.011.43 0 2.049-.754 3.964-2.124 5.394-1.315 1.372-3.046 2.127-4.875 2.127v2c2.379 0 4.623-.974 6.318-2.743 1.729-1.804 2.68-4.211 2.68-6.777.001-.178-.004-.354-.012-.529z"/><path d="m14.626 44.617-1.574-1.234c-.531.678-.969 1.43-1.302 2.235l1.849.764c.263-.637.609-1.231 1.027-1.765z"/><path d="m13.002 49.637c-.012-.497.021-.995.098-1.48l-1.976-.313c-.095.604-.136 1.225-.121 1.842.119 4.92 3.996 9.075 8.636 9.262.117.005.353.008.353.008l.019-2s-.186-.001-.285-.006c-3.613-.146-6.629-3.427-6.724-7.313z"/><path d="m54.331 41.501-1.731-1.002c-.536.926-1.532 1.501-2.6 1.501s-2.064-.575-2.599-1.501l-1.731 1.002c.891 1.541 2.551 2.499 4.33 2.499s3.439-.958 4.331-2.499z"/><path d="m20 41.955c-1.068 0-2.064-.575-2.599-1.501l-1.731 1.002c.892 1.541 2.551 2.499 4.331 2.499s3.439-.958 4.331-2.499l-1.731-1.002c-.537.926-1.533 1.501-2.601 1.501z"/><path d="m39.934 35.743c-1.035.272-2.146-.023-2.9-.777-.755-.755-1.053-1.866-.776-2.899l-1.933-.517c-.459 1.721.037 3.572 1.295 4.83.948.948 2.232 1.463 3.544 1.463.429 0 .86-.055 1.284-.167z"/><path d="m55.868 37.427c-1.057-.556-2.296-.602-3.51-.164 2.319-4.111 5.922-13.221 1.919-25.581l2.3-4.6c.277-.554.423-1.172.423-1.79v-.292c0-2.206-1.794-4-4-4s-4 1.794-4 4v.292c0 .618.146 1.236.422 1.789l1.951 3.901c-7.433-.144-11.215-1.242-12.455-1.69-.148-.655-.497-1.253-1.012-1.703l-1.979-1.732c-3.579-3.132-8.17-4.857-12.927-4.857s-9.348 1.725-12.927 4.857l-1.979 1.732c-.696.608-1.094 1.487-1.094 2.411s.398 1.803 1.094 2.411l1.979 1.732c3.579 3.132 8.17 4.857 12.927 4.857s9.348-1.725 12.927-4.857l1.979-1.732c.344-.301.615-.67.801-1.077 1.801.587 5.868 1.556 13.134 1.652-1.244 8.023-9.513 15.829-12.436 18.367-.087-.164-.171-.33-.215-.496-.438-1.657-1.61-2.911-3.136-3.354-4.727-1.37-9.838.058-13.336 3.728-.834.876-1.529 1.85-2.092 2.894-1.195-7.514-4.923-9.871-5.111-9.984l-1.038 1.71c.032.02 2.328 1.541 3.635 6.129-1.814-1.837-4.331-2.98-7.112-2.98h-10v1c0 5.417 4.332 9.831 9.712 9.985-2.428 2.565-3.798 6.06-3.708 9.797.168 6.987 5.767 12.892 12.479 13.162.174.007.347.011.519.011 3.283 0 6.396-1.262 8.814-3.585 1.803-1.732 3.068-3.96 3.706-6.385 1.616-.13 3.2-.561 4.676-1.266 1.027 6.129 6.189 11.024 12.284 11.27.176.007.349.011.521.011 3.283 0 6.396-1.262 8.814-3.585 2.659-2.553 4.183-6.174 4.183-9.936 0-5.117-2.733-9.735-7.132-12.052zm-31.922-28.427h-2.946c-1.942 0-3.623-2.49-4.106-3.449l-1.788.896c.05.099.705 1.376 1.84 2.553h-3.946v2h7.619c-1.142 1.622-1.572 3.662-1.6 3.804l1.961.394c.221-1.09 1.25-4.198 3.02-4.198h3.619c-1.142 1.622-1.572 3.662-1.6 3.804l1.961.394c.221-1.09 1.25-4.198 3.02-4.198h5.482l-1.872 1.638c-3.215 2.813-7.338 4.362-11.61 4.362s-8.395-1.549-11.609-4.362l-1.979-1.732c-.262-.228-.412-.559-.412-.906s.15-.678.411-.906l1.979-1.732c3.215-2.813 7.338-4.362 11.61-4.362s8.395 1.549 11.609 4.362l1.873 1.638h-8.482c-1.942 0-3.623-2.49-4.106-3.449l-1.788.896c.049.099.705 1.376 1.84 2.553zm27.265-2.814c-.138-.276-.211-.585-.211-.894v-.292c0-1.103.897-2 2-2s2 .897 2 2v.292c0 .309-.073.618-.211.894l-1.789 3.578zm2.072 9.441c2.654 12.11-2.408 20.428-3.745 22.355-.35-.048-.687-.129-.956-.286-1.216-.708-2.584-.872-3.811-.503-.088-.513-.199-1.003-.344-1.47-.439-1.416-1.637-2.478-3.287-2.913-.078-.021-.155-.071-.234-.101 2.962-2.574 10.099-9.397 12.377-17.082zm-50.221 15.373h7.938c3.992 0 7.301 2.943 7.896 6.771-.104-.041-.221-.066-.313-.12-1.504-.877-3.247-.935-4.661-.157-.288.159-.567.328-.84.506h-2.082c-4.072 0-7.444-3.06-7.938-7zm24.37 26.928c-2.149 2.064-4.939 3.139-7.868 3.019-5.679-.229-10.417-5.259-10.561-11.213-.106-4.411 2.148-8.43 5.883-10.487.364-.2.765-.3 1.178-.3.5 0 1.018.146 1.513.434 1.396.813 3.447.813 4.846 0 .42-.246 1.506-.758 2.514-.229 3.74 1.97 6.063 5.91 6.063 10.283 0 3.219-1.3 6.315-3.568 8.493zm9.575-8.379c-1.278.715-2.662 1.183-4.09 1.37.052-.491.083-.986.083-1.484 0-5.117-2.733-9.735-7.132-12.053-1.333-.702-2.955-.604-4.45.27-.012.007-.03.009-.042.016.485-1.897 1.429-3.626 2.791-5.055 2.979-3.127 7.321-4.349 11.331-3.187.857.249 1.499.957 1.759 1.943.203.769.636 1.501 1.255 2.12.618.618 1.351 1.053 2.119 1.255.458.121 1.56.517 1.887 1.571.176.569.286 1.199.363 1.871-3.689 2.503-5.897 6.734-5.874 11.363zm20.425 8.424c-2.149 2.064-4.942 3.134-7.868 3.019-5.679-.229-10.417-5.259-10.561-11.213-.106-4.411 2.148-8.43 5.883-10.487.364-.2.765-.3 1.178-.3.5 0 1.018.146 1.513.434 1.396.813 3.447.813 4.846 0 .42-.246 1.505-.758 2.514-.229 3.74 1.97 6.063 5.909 6.063 10.282 0 3.22-1.3 6.316-3.568 8.494z"/></g></svg>