<svg id="Capa_1" enable-background="new 0 0 512 512" height="512" viewBox="0 0 512 512" width="512" xmlns="http://www.w3.org/2000/svg"><g><g><path d="m389.014 192.928-9.365-13.822c-2.322-3.428-6.984-4.324-10.41-2.001-3.427 2.322-4.323 6.983-2.001 10.41l9.365 13.823c4.396 6.489 6.72 14.062 6.72 21.9v24.685h-254.645v-24.685c0-7.838 2.324-15.411 6.72-21.9l36.708-54.18h167.788l7.809 11.525c2.323 3.428 6.983 4.324 10.411 2.001 3.427-2.322 4.323-6.983 2.001-10.41l-8.759-12.928v-29.869h8.661c8.798 0 15.956-7.158 15.956-15.956v-75.565c.001-8.798-7.157-15.956-15.955-15.956h-208.036c-8.798 0-15.956 7.158-15.956 15.956v75.564c0 8.798 7.158 15.956 15.956 15.956h8.662v29.869l-37.658 55.582c-6.085 8.981-9.301 19.462-9.301 30.309v248.906c0 21.977 17.88 39.857 39.857 39.857h204.915c21.977 0 39.857-17.88 39.857-39.857v-248.905c.001-10.848-3.216-21.329-9.3-30.309zm-52.65-60.764h-160.728v-24.688h160.728zm-184.382-39.68c-.531 0-.964-.432-.964-.964v-75.564c0-.531.432-.964.964-.964h208.035c.531 0 .964.432.964.964v75.564c0 .531-.432.964-.964.964h-16.157-175.72zm231.34 322.333h-164.396c-4.14 0-7.496 3.356-7.496 7.496s3.356 7.496 7.496 7.496h164.397v42.333c0 13.711-11.154 24.865-24.865 24.865h-204.915c-13.711 0-24.865-11.154-24.865-24.865v-42.333h56.406c4.14 0 7.496-3.356 7.496-7.496s-3.356-7.496-7.496-7.496h-56.406v-151.903h254.645v151.903z"/><path d="m185.083 75.245c4.14 0 7.496-3.356 7.496-7.496v-28.021c0-4.14-3.356-7.496-7.496-7.496s-7.496 3.356-7.496 7.496v28.021c0 4.139 3.356 7.496 7.496 7.496z"/><path d="m220.542 75.245c4.14 0 7.496-3.356 7.496-7.496v-28.021c0-4.14-3.356-7.496-7.496-7.496s-7.496 3.356-7.496 7.496v28.021c-.001 4.139 3.356 7.496 7.496 7.496z"/><path d="m256 75.245c4.14 0 7.496-3.356 7.496-7.496v-28.021c0-4.14-3.356-7.496-7.496-7.496s-7.496 3.356-7.496 7.496v28.021c0 4.139 3.356 7.496 7.496 7.496z"/><path d="m291.458 75.245c4.14 0 7.496-3.356 7.496-7.496v-28.021c0-4.14-3.356-7.496-7.496-7.496s-7.496 3.356-7.496 7.496v28.021c0 4.139 3.356 7.496 7.496 7.496z"/><path d="m326.917 75.245c4.14 0 7.496-3.356 7.496-7.496v-28.021c0-4.14-3.356-7.496-7.496-7.496s-7.496 3.356-7.496 7.496v28.021c-.001 4.139 3.356 7.496 7.496 7.496z"/></g></g></svg>