<svg id="Capa_1" enable-background="new 0 0 512 512" height="512" viewBox="0 0 512 512" width="512" xmlns="http://www.w3.org/2000/svg"><g><circle cx="255.859" cy="502" r="10"/><path d="m393.085 182.947c-.006-.006-44.155-44.159-44.155-44.159-5.666-5.667-13.199-8.788-21.214-8.788h-1.716v-21.72c11.639-4.128 20-15.243 20-28.28v-50c0-16.542-13.458-30-30-30h-120c-16.542 0-30 13.458-30 30v50c0 13.036 8.361 24.152 20 28.28v21.72h-1.716c-8.015 0-15.548 3.121-21.213 8.787 0 0-44.146 44.149-44.15 44.152-1.855 1.86-2.922 4.435-2.922 7.062v272c0 6.75 1.319 13.3 3.93 19.46 2.521 5.96 6.12 11.3 10.72 15.89 4.591 4.6 9.931 8.2 15.891 10.72 6.16 2.61 12.71 3.93 19.46 3.93h44.859c5.511 0 10-4.49 10-10s-4.489-10-10-10h-44.859c-16.51-.03-29.97-13.49-30-30v-262.001h240v63.5h-150c-5.522 0-10 4.477-10 10v130c0 5.523 4.478 10 10 10h150v48.5c-.03 16.51-13.49 29.97-30 30h-45.141c-5.52 0-10 4.49-10 10s4.48 10 10 10h45.141c6.75 0 13.3-1.32 19.46-3.93 5.96-2.52 11.3-6.12 15.899-10.72 4.591-4.59 8.19-9.93 10.71-15.89 2.611-6.16 3.931-12.71 3.931-19.46v-272c0-2.623-1.065-5.194-2.915-7.053zm-207.085-152.947c0-5.514 4.486-10 10-10h120c5.514 0 10 4.486 10 10v50c0 5.514-4.486 10-10 10h-120c-5.514 0-10-4.486-10-10zm20 80h100v20h-100zm-55.857 70 27.072-27.072c1.888-1.888 4.398-2.928 7.069-2.928h143.432c2.671 0 5.182 1.04 7.07 2.929l27.071 27.071zm85.857 213.5v-110h140v25h-61c-5.522 0-10 4.477-10 10s4.478 10 10 10h61v20h-96c-5.522 0-10 4.477-10 10s4.478 10 10 10h96v25z"/></g></svg>