<svg id="_x31_-outline-expand" enable-background="new 0 0 64 64" height="512" viewBox="0 0 64 64" width="512" xmlns="http://www.w3.org/2000/svg"><path d="m44.029 2c-4.8 0-9.313 1.869-12.707 5.264l-24.058 24.058c-3.395 3.395-5.264 7.907-5.264 12.707 0 9.909 8.062 17.971 17.971 17.971 4.8 0 9.313-1.869 12.707-5.264l24.059-24.059c3.394-3.394 5.263-7.906 5.263-12.706 0-9.909-8.062-17.971-17.971-17.971zm11.293 29.264-11.322 11.322-3.293-3.293-1.414 1.414 3.293 3.293-11.322 11.322c-3.017 3.017-7.028 4.678-11.293 4.678-8.806 0-15.971-7.164-15.971-15.971 0-4.266 1.661-8.276 4.678-11.293l11.322-11.322 3.293 3.293 1.414-1.414-3.293-3.293 11.322-11.322c3.017-3.017 7.028-4.678 11.293-4.678 8.806 0 15.971 7.164 15.971 15.971 0 4.265-1.661 8.276-4.678 11.293z"/><path d="m35.565 11.506c.863-.862 1.839-1.583 2.9-2.142l-.931-1.77c-1.24.652-2.378 1.492-3.384 2.497l-3.201 3.201 1.414 1.414z"/><path d="m41.231 8.326c.91-.217 1.852-.326 2.798-.326v-2c-1.103 0-2.2.128-3.261.381z"/><path d="m39.928 29.732 1.732-1-2-3.465-1.732 1 .5.866-1.807 1.043c-.899-1.085-2.174-1.843-3.621-2.087v-2.089h1v-2h-4v2h1v2.09c-1.447.244-2.722 1.002-3.621 2.087l-1.807-1.043.5-.866-1.732-1-2 3.465 1.732 1 .5-.866 1.811 1.045c-.244.651-.383 1.353-.383 2.088s.139 1.437.382 2.088l-1.811 1.045-.5-.866-1.732 1 2 3.465 1.732-1-.5-.866 1.807-1.043c.899 1.085 2.174 1.843 3.621 2.087v2.09h-1v2h4v-2h-1v-2.09c1.447-.244 2.722-1.002 3.621-2.087l1.807 1.043-.5.866 1.732 1 2-3.465-1.732-1-.5.866-1.811-1.045c.245-.651.384-1.353.384-2.088s-.139-1.437-.382-2.088l1.811-1.045zm-7.928 6.268c-2.206 0-4-1.794-4-4s1.794-4 4-4 4 1.794 4 4-1.794 4-4 4z"/></svg>