<?xml version="1.0" encoding="iso-8859-1"?>
<!-- Generator: Adobe Illustrator 19.0.0, SVG Export Plug-In . SVG Version: 6.00 Build 0)  -->
<svg version="1.1" id="Capa_1" xmlns="http://www.w3.org/2000/svg" xmlns:xlink="http://www.w3.org/1999/xlink" x="0px" y="0px"
	 viewBox="0 0 211.627 211.627" style="enable-background:new 0 0 211.627 211.627;" xml:space="preserve">
<g>
	<g>
		<path d="M51.2,100.693c-28.232,0-51.2,22.968-51.2,51.2v3.413h36.501v-6.827H6.955c1.749-22.88,20.924-40.96,44.244-40.96
			c23.32,0,42.496,18.08,44.244,40.96H66.033v6.827H102.4v-3.413C102.4,123.662,79.432,100.693,51.2,100.693z"/>
	</g>
</g>
<g>
	<g>
		<path d="M98.987,148.48H66.384c-1.884,0-3.413,1.529-3.413,3.413s1.529,3.413,3.413,3.413h29.059
			c-1.749,22.88-20.924,40.96-44.244,40.96s-42.496-18.08-44.244-40.96h28.505c1.884,0,3.413-1.529,3.413-3.413
			s-1.529-3.413-3.413-3.413H3.413c-1.884,0-3.413,1.529-3.413,3.413c0,28.232,22.968,51.2,51.2,51.2s51.2-22.968,51.2-51.2
			C102.4,150.009,100.871,148.48,98.987,148.48z"/>
	</g>
</g>
<g>
	<g>
		<path d="M51.2,134.144c-9.786,0-17.749,7.963-17.749,17.749s7.963,17.749,17.749,17.749c9.786,0,17.749-7.963,17.749-17.749
			S60.986,134.144,51.2,134.144z M51.2,162.816c-6.023,0-10.923-4.9-10.923-10.923s4.9-10.923,10.923-10.923
			s10.923,4.9,10.923,10.923S57.223,162.816,51.2,162.816z"/>
	</g>
</g>
<g>
	<g>
		<path d="M160.427,100.693c-28.232,0-51.2,22.968-51.2,51.2v3.413h36.5v-6.827h-29.546c1.749-22.88,20.924-40.96,44.244-40.96
			s42.496,18.08,44.244,40.96h-29.409v6.827h36.367v-3.413C211.627,123.662,188.658,100.693,160.427,100.693z"/>
	</g>
</g>
<g>
	<g>
		<path d="M208.213,148.48h-32.602c-1.884,0-3.413,1.529-3.413,3.413s1.529,3.413,3.413,3.413h29.059
			c-1.749,22.88-20.924,40.96-44.244,40.96s-42.496-18.08-44.244-40.96h28.505c1.884,0,3.413-1.529,3.413-3.413
			s-1.529-3.413-3.413-3.413H112.64c-1.884,0-3.413,1.529-3.413,3.413c0,28.232,22.968,51.2,51.2,51.2s51.2-22.968,51.2-51.2
			C211.627,150.009,210.098,148.48,208.213,148.48z"/>
	</g>
</g>
<g>
	<g>
		<path d="M160.427,134.144c-9.786,0-17.749,7.963-17.749,17.749s7.963,17.749,17.749,17.749s17.749-7.963,17.749-17.749
			S170.213,134.144,160.427,134.144z M160.427,162.816c-6.023,0-10.923-4.9-10.923-10.923s4.9-10.923,10.923-10.923
			s10.923,4.9,10.923,10.923S166.45,162.816,160.427,162.816z"/>
	</g>
</g>
<g>
	<g>
		<path d="M105.813,8.533c-28.232,0-51.2,22.968-51.2,51.2v3.413h36.5V56.32H61.568c1.749-22.88,20.924-40.96,44.244-40.96
			s42.496,18.08,44.244,40.96h-29.409v6.827h36.367v-3.413C157.013,31.502,134.045,8.533,105.813,8.533z"/>
	</g>
</g>
<g>
	<g>
		<path d="M153.6,56.32h-32.602c-1.884,0-3.413,1.529-3.413,3.413s1.529,3.413,3.413,3.413h29.059
			c-1.749,22.88-20.924,40.96-44.244,40.96s-42.496-18.08-44.244-40.96h28.505c1.884,0,3.413-1.529,3.413-3.413
			s-1.529-3.413-3.413-3.413H58.027c-1.884,0-3.413,1.529-3.413,3.413c0,28.232,22.968,51.2,51.2,51.2s51.2-22.968,51.2-51.2
			C157.013,57.849,155.484,56.32,153.6,56.32z"/>
	</g>
</g>
<g>
	<g>
		<path d="M105.813,41.984c-9.786,0-17.749,7.963-17.749,17.749s7.963,17.749,17.749,17.749s17.749-7.963,17.749-17.749
			S115.599,41.984,105.813,41.984z M105.813,70.656c-6.023,0-10.923-4.9-10.923-10.923s4.9-10.923,10.923-10.923
			s10.923,4.9,10.923,10.923S111.836,70.656,105.813,70.656z"/>
	</g>
</g>
<g>
</g>
<g>
</g>
<g>
</g>
<g>
</g>
<g>
</g>
<g>
</g>
<g>
</g>
<g>
</g>
<g>
</g>
<g>
</g>
<g>
</g>
<g>
</g>
<g>
</g>
<g>
</g>
<g>
</g>
</svg>
