<?xml version="1.0" encoding="iso-8859-1"?>
<!-- Generator: Adobe Illustrator 19.0.0, SVG Export Plug-In . SVG Version: 6.00 Build 0)  -->
<svg version="1.1" id="Capa_1" xmlns="http://www.w3.org/2000/svg" xmlns:xlink="http://www.w3.org/1999/xlink" x="0px" y="0px"
	 viewBox="0 0 491.266 491.266" style="enable-background:new 0 0 491.266 491.266;" xml:space="preserve">
<g>
	<g>
		<path d="M488.988,409.7c-0.029-0.03-0.059-0.059-0.132-0.043l-22.64-22.64c-3.124-3.123-8.188-3.123-11.312,0l-11.296,11.312
			l-16.304-16.304c1.73-6.196,2.61-12.599,2.616-19.032V85.953c0-4.418-3.582-8-8-8c-59.04,0-121.168-25.496-170.48-69.944
			c-3.202-2.644-7.83-2.644-11.032,0c-27.903,25.255-60.568,44.683-96.08,57.144L81.576,2.377c-1.5-1.5-3.534-2.344-5.656-2.344H8
			c-4.418,0-8,3.582-8,8v67.92c0,2.122,0.844,4.156,2.344,5.656l59.576,59.544v216.48c-0.05,32.497,19.603,61.781,49.696,74.048
			l131.28,53.68c0.961,0.39,1.987,0.591,3.024,0.592c1.04-0.001,2.07-0.205,3.032-0.6l135.624-55.504l13.784,13.776l-11.296,11.312
			c-3.118,3.123-3.118,8.181,0,11.304l22.56,22.64c1.499,1.503,3.533,2.349,5.656,2.352c2.122,0,4.156-0.844,5.656-2.344
			l67.92-67.92C492.004,417.869,492.088,412.849,488.988,409.7z M245.92,24.465c46.643,41.295,105.81,65.716,168,69.344v269.184
			c0,1.8-0.088,3.6-0.264,5.384l-88.8-88.8l56.584-56.584c3.123-3.124,3.123-8.188,0-11.312l-22.64-22.64
			c-3.124-3.123-8.188-3.123-11.312,0l-39.648,39.6L156.896,77.697C189.439,65.262,219.565,47.248,245.92,24.465z M217.36,364.401
			l-11.328-11.328l147.088-147.12l11.36,11.36L217.36,364.401z M16,72.641V16.033h56.608l223.92,223.92l-22.648,22.648
			L41.976,30.697c-3.178-3.069-8.243-2.981-11.312,0.197c-2.994,3.1-2.994,8.015,0,11.115l231.904,231.904l-22.648,22.648L16,72.641
			z M245.92,469.305l-128.24-52.432c-24.075-9.814-39.798-33.242-39.76-59.24v-200.48l150.688,150.72l-39.544,39.544
			c-3.123,3.124-3.123,8.188,0,11.312l22.64,22.64c3.123,3.118,8.181,3.118,11.304,0l56.552-56.544l92.752,92.752L245.92,469.305z
			 M290.88,313.545l22.616-22.672l118.792,118.768l-22.624,22.664L290.88,313.545z M415.256,471.945l-11.264-11.312l56.536-56.616
			l11.328,11.328L415.256,471.945z"/>
	</g>
</g>
<g>
</g>
<g>
</g>
<g>
</g>
<g>
</g>
<g>
</g>
<g>
</g>
<g>
</g>
<g>
</g>
<g>
</g>
<g>
</g>
<g>
</g>
<g>
</g>
<g>
</g>
<g>
</g>
<g>
</g>
</svg>
