<?xml version="1.0" encoding="iso-8859-1"?>
<!-- Generator: Adobe Illustrator 19.0.0, SVG Export Plug-In . SVG Version: 6.00 Build 0)  -->
<svg version="1.1" id="Capa_1" xmlns="http://www.w3.org/2000/svg" xmlns:xlink="http://www.w3.org/1999/xlink" x="0px" y="0px"
	 viewBox="0 0 511.949 511.949" style="enable-background:new 0 0 511.949 511.949;" xml:space="preserve">
<g>
	<g>
		<g>
			<path d="M73.412,399.121c-18.778,0.002-34.94,13.267-38.603,31.685c-3.663,18.417,6.194,36.858,23.542,44.044
				c17.349,7.187,37.358,1.118,47.792-14.494c10.434-15.612,8.387-36.421-4.889-49.701C93.888,403.244,83.861,399.09,73.412,399.121
				z M89.187,454.259c-8.826,8.425-22.716,8.425-31.542,0c-8.703-8.709-8.7-22.823,0.007-31.528c8.707-8.705,22.821-8.705,31.528,0
				C97.887,431.436,97.89,445.55,89.187,454.259z"/>
			<path d="M511.872,8.731c-0.008-0.864-0.148-1.721-0.414-2.542c-0.075-0.261-0.055-0.542-0.155-0.794
				c-0.853-2.209-2.603-3.953-4.815-4.798c-0.128-0.049-0.273-0.035-0.404-0.079c-0.935-0.331-1.921-0.496-2.913-0.486
				c-0.066,0.001-0.126-0.034-0.192-0.032L345.904,7.404c-12.039,0.535-23.026,7.017-29.317,17.296l-145.73,239.181l-21.412-21.414
				c-8.865-8.832-23.204-8.83-32.067,0.004l-20,19.996c-4.253,4.252-6.642,10.02-6.642,16.033s2.389,11.781,6.642,16.033
				l23.935,23.935l-46.616,46.616c-29.811-0.493-56.961,17.087-68.709,44.489c-11.748,27.403-5.763,59.189,15.148,80.441
				s52.595,27.753,80.185,16.451s45.608-38.164,45.598-67.979c0-0.461-0.058-0.911-0.067-1.37l46.556-46.553l23.96,23.961
				c4.252,4.253,10.02,6.642,16.033,6.642s11.781-2.389,16.033-6.642l19.992-19.996c4.253-4.252,6.642-10.02,6.642-16.033
				s-2.389-11.781-6.642-16.033l-21.407-21.409l239.182-145.736c10.284-6.287,16.766-17.279,17.292-29.321l7.408-157.071
				C511.907,8.858,511.871,8.797,511.872,8.731z M113.32,478.396c-18.055,18.081-46.006,21.775-68.139,9.006
				c-22.133-12.769-32.925-38.816-26.309-63.497c6.616-24.681,28.988-41.838,54.541-41.826c1.506,0,3.011,0.096,4.513,0.215
				c0.075,0.001,0.145,0.011,0.22,0.01c21.886,1.825,40.722,16.19,48.272,36.813C133.967,439.742,128.856,462.873,113.32,478.396z
				 M143.503,416.335c-7.211-22.859-25.146-40.746-48.024-47.896l37.883-37.88l17.783,17.742l30.197,30.197L143.503,416.335z
				 M257.362,374.533c1.054,1.047,1.646,2.473,1.642,3.959c0.004,1.488-0.587,2.916-1.642,3.967l-19.992,19.996
				c-2.218,2.122-5.713,2.124-7.933,0.004l-29.782-29.783c-0.073-0.079-0.1-0.186-0.176-0.262l-36.147-36.062l-53.886-53.888
				c-1.051-1.051-1.642-2.476-1.642-3.963s0.591-2.912,1.642-3.962l20-19.996c2.192-2.187,5.74-2.189,7.933-0.004L257.362,374.533z
				 M487.446,165.2c-0.263,6.377-3.685,12.204-9.125,15.542L235.602,328.632l-52.331-52.336L331.154,33.583
				c3.347-5.44,9.177-8.861,15.558-9.129l135.036-6.366L232.813,267.025c-2.188,2.149-3.055,5.307-2.27,8.271
				c0.785,2.965,3.1,5.28,6.065,6.065c2.965,0.785,6.122-0.082,8.271-2.27L493.815,30.156L487.446,165.2z"/>
		</g>
	</g>
</g>
<g>
</g>
<g>
</g>
<g>
</g>
<g>
</g>
<g>
</g>
<g>
</g>
<g>
</g>
<g>
</g>
<g>
</g>
<g>
</g>
<g>
</g>
<g>
</g>
<g>
</g>
<g>
</g>
<g>
</g>
</svg>
