<?xml version="1.0" encoding="iso-8859-1"?>
<!-- Generator: Adobe Illustrator 19.0.0, SVG Export Plug-In . SVG Version: 6.00 Build 0)  -->
<svg version="1.1" id="Layer_1" xmlns="http://www.w3.org/2000/svg" xmlns:xlink="http://www.w3.org/1999/xlink" x="0px" y="0px"
	 viewBox="0 0 512 512" style="enable-background:new 0 0 512 512;" xml:space="preserve">
<g>
	<g>
		<g>
			<path d="M444.472,386.74c-4.375-3.927-11.083-3.583-15.082,0.792l-77.391,86.001V181.333c0-5.896-4.771-10.667-10.666-10.667
				c-5.896,0-10.666,4.771-10.666,10.667v292.199l-77.391-86.001c-3.979-4.396-10.708-4.74-15.082-0.792
				c-4.375,3.938-4.729,10.688-0.792,15.063l95.994,106.667c2.042,2.25,4.916,3.531,7.937,3.531c3.021,0,5.895-1.281,7.937-3.531
				l95.994-106.667C449.201,397.427,448.847,390.677,444.472,386.74z"/>
			<path d="M266.674,128c2.542,0,5.104-0.906,7.146-2.74c4.375-3.938,4.729-10.688,0.792-15.063l-96-106.667
				c-2.041-2.249-4.987-3.53-7.933-3.531c-2.949-0.001-5.899,1.28-7.942,3.531l-96,106.667c-3.937,4.375-3.583,11.125,0.792,15.063
				c4.396,3.938,11.104,3.615,15.083-0.792l77.396-86.001v292.199c0,5.896,4.771,10.667,10.667,10.667s10.667-4.771,10.667-10.667
				V38.467l77.396,86.001C260.861,126.813,263.757,128,266.674,128z"/>
		</g>
	</g>
</g>
<g>
</g>
<g>
</g>
<g>
</g>
<g>
</g>
<g>
</g>
<g>
</g>
<g>
</g>
<g>
</g>
<g>
</g>
<g>
</g>
<g>
</g>
<g>
</g>
<g>
</g>
<g>
</g>
<g>
</g>
</svg>
