<svg xmlns="http://www.w3.org/2000/svg" width="128" height="48" viewBox="0 0 128 48"><defs><mask id="4b5qb" width="2" height="2" x="-1" y="-1"><path fill="#fff" d="M9 9h110v30H9z"/><path d="M9 24c0-8.284 6.716-15 15-15h80c8.284 0 15 6.716 15 15 0 8.284-6.716 15-15 15H24c-8.284 0-15-6.716-15-15z"/></mask><filter id="4b5qa" width="150" height="70" x="-11" y="-11" filterUnits="userSpaceOnUse"><feOffset in="SourceGraphic" result="FeOffset1249Out"/><feGaussianBlur in="FeOffset1249Out" result="FeGaussianBlur1250Out" stdDeviation="4 4"/></filter></defs><g><g><g><g filter="url(#4b5qa)"><path fill="none" d="M9 24c0-8.284 6.716-15 15-15h80c8.284 0 15 6.716 15 15 0 8.284-6.716 15-15 15H24c-8.284 0-15-6.716-15-15z" mask="url(&quot;#4b5qb&quot;)"/><path fill="#f8a54f" fill-opacity=".7" d="M9 24c0-8.284 6.716-15 15-15h80c8.284 0 15 6.716 15 15 0 8.284-6.716 15-15 15H24c-8.284 0-15-6.716-15-15z"/></g><path fill="#f8a54f" d="M9 24c0-8.284 6.716-15 15-15h80c8.284 0 15 6.716 15 15 0 8.284-6.716 15-15 15H24c-8.284 0-15-6.716-15-15z"/></g><g><path fill="#fff" d="M30.653 26.93a2.13 2.13 0 0 1-1.393.665c.507-.233.858-.739.858-1.324 0-.808-.669-1.463-1.494-1.463s-1.493.655-1.493 1.463c0 .225.052.438.144.629-.52-.41-.602-1.074-.602-1.074s-.576 2.391 1.011 3.517c1.588 1.125 4.697.158 4.697.158s-4.45 3.13-7.748-.277c-2.84-2.936-.74-6.8-.74-6.8s-.092.358-.092.774c0 .416.226.733.226.733s.673-1.419 1.197-1.996c.878-.966 2.149-1.61 2.647-2.167 1.195-1.336.462-3.768.462-3.768s1.347 1.187 1.722 2.72c.376 1.532-.868 3.62.694 3.538 1.562-.082.204-2.49.204-2.49s3.543 1.862 3.279 5.119c-.265 3.256-3.873 3.997-3.873 3.997s.943-.775 1.126-1.444c.184-.67-.172-2.045-.172-2.045s-.257 1.12-.66 1.535z"/></g></g></g></svg>