<svg xmlns="http://www.w3.org/2000/svg" width="128" height="48" viewBox="0 0 128 48"><defs><mask id="c6rsb" width="2" height="2" x="-1" y="-1"><path fill="#fff" d="M9 9h110v30H9z"/><path d="M9 24c0-8.284 6.716-15 15-15h80c8.284 0 15 6.716 15 15 0 8.284-6.716 15-15 15H24c-8.284 0-15-6.716-15-15z"/></mask><filter id="c6rsa" width="150" height="70" x="-11" y="-11" filterUnits="userSpaceOnUse"><feOffset in="SourceGraphic" result="FeOffset1628Out"/><feGaussianBlur in="FeOffset1628Out" result="FeGaussianBlur1629Out" stdDeviation="4 4"/></filter></defs><g><g><g><g filter="url(#c6rsa)"><path fill="none" d="M9 24c0-8.284 6.716-15 15-15h80c8.284 0 15 6.716 15 15 0 8.284-6.716 15-15 15H24c-8.284 0-15-6.716-15-15z" mask="url(&quot;#c6rsb&quot;)"/><path fill="#559edf" fill-opacity=".7" d="M9 24c0-8.284 6.716-15 15-15h80c8.284 0 15 6.716 15 15 0 8.284-6.716 15-15 15H24c-8.284 0-15-6.716-15-15z"/></g><path fill="#559edf" d="M9 24c0-8.284 6.716-15 15-15h80c8.284 0 15 6.716 15 15 0 8.284-6.716 15-15 15H24c-8.284 0-15-6.716-15-15z"/></g><g><path fill="#fff" d="M23 26.019c0-2.751 4.58-9.797 4.58-9.797a.5.5 0 0 1 .84 0S33 23.268 33 26.019C33 28.769 30.761 31 28 31s-5-2.23-5-4.981zm2.063.018s-.434 2.81 2.104 3.366c2.537.555 3.984-1.376 3.984-1.376s-2.032.806-3.713.257c-1.682-.55-2.375-2.247-2.375-2.247z"/></g></g></g></svg>