<svg xmlns="http://www.w3.org/2000/svg" width="128" height="48" viewBox="0 0 128 48"><defs><mask id="13l5b" width="2" height="2" x="-1" y="-1"><path fill="#fff" d="M9 9h110v30H9z"/><path d="M9 24c0-8.284 6.716-15 15-15h80c8.284 0 15 6.716 15 15 0 8.284-6.716 15-15 15H24c-8.284 0-15-6.716-15-15z"/></mask><filter id="13l5a" width="150" height="70" x="-11" y="-11" filterUnits="userSpaceOnUse"><feOffset in="SourceGraphic" result="FeOffset1116Out"/><feGaussianBlur in="FeOffset1116Out" result="FeGaussianBlur1117Out" stdDeviation="4 4"/></filter></defs><g><g><g><g filter="url(#13l5a)"><path fill="none" d="M9 24c0-8.284 6.716-15 15-15h80c8.284 0 15 6.716 15 15 0 8.284-6.716 15-15 15H24c-8.284 0-15-6.716-15-15z" mask="url(&quot;#13l5b&quot;)"/><path fill="#5dbe62" fill-opacity=".7" d="M9 24c0-8.284 6.716-15 15-15h80c8.284 0 15 6.716 15 15 0 8.284-6.716 15-15 15H24c-8.284 0-15-6.716-15-15z"/></g><path fill="#5dbe62" d="M9 24c0-8.284 6.716-15 15-15h80c8.284 0 15 6.716 15 15 0 8.284-6.716 15-15 15H24c-8.284 0-15-6.716-15-15z"/></g><g transform="rotate(45 31.5 24)"><path fill="#fff" d="M26.51 25.01c0-3.381 5.273-8.88 5.273-8.88s6.969 5.499 6.969 8.88c0 3.001-2.162 5.499-5.014 6.02l-.308-3.026 1.703-2.642-1.95 1.596-.021-2.274 1.002-1.564-1.315.714-.816-2.844.176 3.061-1.343-.23 1.494 1.103.128 2.138-1.9-.968L32.496 28l.327 3.127a6.12 6.12 0 0 1-6.312-6.118z"/></g></g></g></svg>