<svg xmlns="http://www.w3.org/2000/svg" width="128" height="48" viewBox="0 0 128 48"><defs><mask id="8qx9b" width="2" height="2" x="-1" y="-1"><path fill="#fff" d="M9 9h110v30H9z"/><path d="M9 24c0-8.284 6.716-15 15-15h80c8.284 0 15 6.716 15 15 0 8.284-6.716 15-15 15H24c-8.284 0-15-6.716-15-15z"/></mask><filter id="8qx9a" width="150" height="70" x="-11" y="-11" filterUnits="userSpaceOnUse"><feOffset in="SourceGraphic" result="FeOffset1153Out"/><feGaussianBlur in="FeOffset1153Out" result="FeGaussianBlur1154Out" stdDeviation="4 4"/></filter></defs><g><g><g><g filter="url(#8qx9a)"><path fill="none" d="M9 24c0-8.284 6.716-15 15-15h80c8.284 0 15 6.716 15 15 0 8.284-6.716 15-15 15H24c-8.284 0-15-6.716-15-15z" mask="url(&quot;#8qx9b&quot;)"/><path fill="#edd53f" fill-opacity=".7" d="M9 24c0-8.284 6.716-15 15-15h80c8.284 0 15 6.716 15 15 0 8.284-6.716 15-15 15H24c-8.284 0-15-6.716-15-15z"/></g><path fill="#edd53f" d="M9 24c0-8.284 6.716-15 15-15h80c8.284 0 15 6.716 15 15 0 8.284-6.716 15-15 15H24c-8.284 0-15-6.716-15-15z"/></g><g><path fill="#fff" d="M24.963 16.584A.44.44 0 0 1 25.38 16h4.707a.44.44 0 0 1 .42.31l2.318 7.487a.44.44 0 0 1-.42.57h-2.882a.22.22 0 0 0-.211.28l1.443 5.08a.44.44 0 0 1-.775.384l-6.45-8.577a.44.44 0 0 1 .352-.704h2.243a.22.22 0 0 0 .208-.292z"/></g></g></g></svg>