<svg xmlns="http://www.w3.org/2000/svg" width="128" height="48" viewBox="0 0 128 48"><defs><mask id="ziphb" width="2" height="2" x="-1" y="-1"><path fill="#fff" d="M9 9h110v30H9z"/><path d="M9 24c0-8.284 6.716-15 15-15h80c8.284 0 15 6.716 15 15 0 8.284-6.716 15-15 15H24c-8.284 0-15-6.716-15-15z"/></mask><filter id="zipha" width="150" height="70" x="-11" y="-11" filterUnits="userSpaceOnUse"><feOffset in="SourceGraphic" result="FeOffset1532Out"/><feGaussianBlur in="FeOffset1532Out" result="FeGaussianBlur1533Out" stdDeviation="4 4"/></filter></defs><g><g><g><g filter="url(#zipha)"><path fill="none" d="M9 24c0-8.284 6.716-15 15-15h80c8.284 0 15 6.716 15 15 0 8.284-6.716 15-15 15H24c-8.284 0-15-6.716-15-15z" mask="url(&quot;#ziphb&quot;)"/><path fill="#f87c7a" fill-opacity=".7" d="M9 24c0-8.284 6.716-15 15-15h80c8.284 0 15 6.716 15 15 0 8.284-6.716 15-15 15H24c-8.284 0-15-6.716-15-15z"/></g><path fill="#f87c7a" d="M9 24c0-8.284 6.716-15 15-15h80c8.284 0 15 6.716 15 15 0 8.284-6.716 15-15 15H24c-8.284 0-15-6.716-15-15z"/></g><g><path fill="#fff" d="M34.975 28.626s-1.766 1.416-5.279.83c-2.665-.444-4.086-3.382-4.086-4.962 0-3.744 2.77-4.596 4.644-4.596s3.096 1.827 3.096 3.24c0 1.415-1 2.652-2.557 2.652-1.556 0-2.017-1.093-2.017-2.097 0-1.005.812-1.359 1.554-1.359.741 0 .995.633.995 1.177s-.422.739-.774.739c-.352 0-.387-.178-.522-.365-.135-.186.172-.893-.333-.893-.504 0-.599.812-.599.812s.184 1.568 1.696 1.541c1.512-.027 2.229-1.196 2.02-2.353-.208-1.157-1.33-2.386-3.302-2.138-1.97.249-2.775 2.24-2.42 4.368.354 2.128 2.904 3.36 4.908 2.917C34.004 27.696 36 26.245 36 22.565c0-3.679-3.186-5.89-6.986-5.526-3.8.365-6.158 3.686-6.007 7.678.15 3.99 3.938 6.165 7.14 6.277 3.203.112 5.166-1.742 5.166-1.742s.442-.394.269-.701c-.173-.308-.607.075-.607.075z"/></g></g></g></svg>