<svg xmlns="http://www.w3.org/2000/svg" width="128" height="48" viewBox="0 0 128 48"><defs><mask id="b6kgb" width="2" height="2" x="-1" y="-1"><path fill="#fff" d="M9 9h110v30H9z"/><path d="M9 24c0-8.284 6.716-15 15-15h80c8.284 0 15 6.716 15 15 0 8.284-6.716 15-15 15H24c-8.284 0-15-6.716-15-15z"/></mask><filter id="b6kga" width="150" height="70" x="-11" y="-11" filterUnits="userSpaceOnUse"><feOffset in="SourceGraphic" result="FeOffset1025Out"/><feGaussianBlur in="FeOffset1025Out" result="FeGaussianBlur1026Out" stdDeviation="4 4"/></filter></defs><g><g><g><g filter="url(#b6kga)"><path fill="none" d="M9 24c0-8.284 6.716-15 15-15h80c8.284 0 15 6.716 15 15 0 8.284-6.716 15-15 15H24c-8.284 0-15-6.716-15-15z" mask="url(&quot;#b6kgb&quot;)"/><path fill="#7ed4c9" fill-opacity=".7" d="M9 24c0-8.284 6.716-15 15-15h80c8.284 0 15 6.716 15 15 0 8.284-6.716 15-15 15H24c-8.284 0-15-6.716-15-15z"/></g><path fill="#7ed4c9" d="M9 24c0-8.284 6.716-15 15-15h80c8.284 0 15 6.716 15 15 0 8.284-6.716 15-15 15H24c-8.284 0-15-6.716-15-15z"/></g><g><g transform="rotate(31 33.5 19.5)"><path fill="#fff" d="M33.691 15.82l2.403 3.897-2.436 3.7-2.268-3.68z"/></g><g transform="rotate(89 35.5 23.5)"><path fill="#fff" d="M35.679 19.69l2.191 3.991-2.333 3.915-2.007-3.988z"/></g><g transform="rotate(89 26.5 23.5)"><path fill="#fff" d="M27.069 19.69l2.191 3.991-2.333 3.915-2.007-3.988z"/></g><g transform="rotate(-32 29.5 19.5)"><path fill="#fff" d="M29.051 15.71l2.403 3.897-2.436 3.7-2.268-3.68z"/></g><g transform="rotate(148 34.5 27.5)"><path fill="#fff" d="M33.661 23.72l2.403 3.897-2.436 3.7-2.268-3.68z"/></g><g transform="rotate(211 28.5 27.5)"><path fill="#fff" d="M29.051 23.67l2.403 3.897-2.436 3.7-2.268-3.68z"/></g></g></g></g></svg>