<svg xmlns="http://www.w3.org/2000/svg" width="128" height="48" viewBox="0 0 128 48"><defs><mask id="iah4b" width="2" height="2" x="-1" y="-1"><path fill="#fff" d="M9 9h110v30H9z"/><path d="M9 24c0-8.284 6.716-15 15-15h80c8.284 0 15 6.716 15 15 0 8.284-6.716 15-15 15H24c-8.284 0-15-6.716-15-15z"/></mask><filter id="iah4a" width="150" height="70" x="-11" y="-11" filterUnits="userSpaceOnUse"><feOffset in="SourceGraphic" result="FeOffset1089Out"/><feGaussianBlur in="FeOffset1089Out" result="FeGaussianBlur1090Out" stdDeviation="4 4"/></filter></defs><g><g><g><g filter="url(#iah4a)"><path fill="none" d="M9 24c0-8.284 6.716-15 15-15h80c8.284 0 15 6.716 15 15 0 8.284-6.716 15-15 15H24c-8.284 0-15-6.716-15-15z" mask="url(&quot;#iah4b&quot;)"/><path fill="#5f606d" fill-opacity=".7" d="M9 24c0-8.284 6.716-15 15-15h80c8.284 0 15 6.716 15 15 0 8.284-6.716 15-15 15H24c-8.284 0-15-6.716-15-15z"/></g><path fill="#5f606d" d="M9 24c0-8.284 6.716-15 15-15h80c8.284 0 15 6.716 15 15 0 8.284-6.716 15-15 15H24c-8.284 0-15-6.716-15-15z"/></g><g><path fill="#fff" d="M30.097 18.75a5.347 5.347 0 1 1-.816 10.633c1.593-1.078 2.663-3.085 2.663-5.383 0-2.186-.968-4.108-2.433-5.218.192-.021.388-.032.586-.032zM30 31a7 7 0 1 0 0-14 7 7 0 0 0 0 14z"/></g></g></g></svg>