<svg xmlns="http://www.w3.org/2000/svg" width="128" height="48" viewBox="0 0 128 48"><defs><mask id="bbm3b" width="2" height="2" x="-1" y="-1"><path fill="#fff" d="M9 9h110v30H9z"/><path d="M9 24c0-8.284 6.716-15 15-15h80c8.284 0 15 6.716 15 15 0 8.284-6.716 15-15 15H24c-8.284 0-15-6.716-15-15z"/></mask><filter id="bbm3a" width="150" height="70" x="-11" y="-11" filterUnits="userSpaceOnUse"><feOffset in="SourceGraphic" result="FeOffset1185Out"/><feGaussianBlur in="FeOffset1185Out" result="FeGaussianBlur1186Out" stdDeviation="4 4"/></filter></defs><g><g><g><g filter="url(#bbm3a)"><path fill="none" d="M9 24c0-8.284 6.716-15 15-15h80c8.284 0 15 6.716 15 15 0 8.284-6.716 15-15 15H24c-8.284 0-15-6.716-15-15z" mask="url(&quot;#bbm3b&quot;)"/><path fill="#ef97e6" fill-opacity=".7" d="M9 24c0-8.284 6.716-15 15-15h80c8.284 0 15 6.716 15 15 0 8.284-6.716 15-15 15H24c-8.284 0-15-6.716-15-15z"/></g><path fill="#ef97e6" d="M9 24c0-8.284 6.716-15 15-15h80c8.284 0 15 6.716 15 15 0 8.284-6.716 15-15 15H24c-8.284 0-15-6.716-15-15z"/></g><g><path fill="#fff" d="M26.27 27.924a.243.243 0 0 1-.3-.302l.601-2.031-3.443-1.883a.243.243 0 0 1 0-.426l3.472-1.898-.63-2.13a.243.243 0 0 1 .3-.302l2.13.618 1.882-3.442a.243.243 0 0 1 .426 0l1.883 3.445 2.139-.62a.243.243 0 0 1 .3.301l-.631 2.134 3.463 1.894a.243.243 0 0 1 0 .426l-3.434 1.878.602 2.036a.243.243 0 0 1-.3.302l-2.085-.605-1.937 3.543a.243.243 0 0 1-.426 0l-1.936-3.54zm4.043-2.036a.243.243 0 0 0 .425 0l.76-1.39 1.39-.76a.243.243 0 0 0 0-.425l-1.39-.76-.76-1.39a.243.243 0 0 0-.426 0l-.76 1.39-1.39.76a.243.243 0 0 0 0 .425l1.39.76z"/></g></g></g></svg>