<svg xmlns="http://www.w3.org/2000/svg" width="128" height="48" viewBox="0 0 128 48"><defs><mask id="pjuzb" width="2" height="2" x="-1" y="-1"><path fill="#fff" d="M9 9h110v30H9z"/><path d="M9 24c0-8.284 6.716-15 15-15h80c8.284 0 15 6.716 15 15 0 8.284-6.716 15-15 15H24c-8.284 0-15-6.716-15-15z"/></mask><filter id="pjuza" width="150" height="70" x="-11" y="-11" filterUnits="userSpaceOnUse"><feOffset in="SourceGraphic" result="FeOffset1217Out"/><feGaussianBlur in="FeOffset1217Out" result="FeGaussianBlur1218Out" stdDeviation="4 4"/></filter></defs><g><g><g><g filter="url(#pjuza)"><path fill="none" d="M9 24c0-8.284 6.716-15 15-15h80c8.284 0 15 6.716 15 15 0 8.284-6.716 15-15 15H24c-8.284 0-15-6.716-15-15z" mask="url(&quot;#pjuzb&quot;)"/><path fill="#d94256" fill-opacity=".7" d="M9 24c0-8.284 6.716-15 15-15h80c8.284 0 15 6.716 15 15 0 8.284-6.716 15-15 15H24c-8.284 0-15-6.716-15-15z"/></g><path fill="#d94256" d="M9 24c0-8.284 6.716-15 15-15h80c8.284 0 15 6.716 15 15 0 8.284-6.716 15-15 15H24c-8.284 0-15-6.716-15-15z"/></g><g><path fill="#fff" d="M23 24.625c0-1.7.73-3.244 1.92-4.386-.002 1.658.025 3.372.155 3.343.387-.089 0-6.55 0-6.55l-.039.055V17a1 1 0 0 1 1-1h1.31a1 1 0 0 1 .94.657.999.999 0 0 1 .805-.407H30.4a1 1 0 0 1 .993.882.995.995 0 0 1 .498-.132H33.2a1 1 0 0 1 1 1h.018c.082 0 .16.01.237.028.075-.018.154-.028.236-.028H36a1 1 0 0 1 1 1v6.093a1 1 0 0 1-.053.322C36.519 28.563 33.572 31 30 31c-3.866 0-7-2.854-7-6.375z"/></g></g></g></svg>