<svg xmlns="http://www.w3.org/2000/svg" width="128" height="48" viewBox="0 0 128 48"><defs><mask id="hvyfb" width="2" height="2" x="-1" y="-1"><path fill="#fff" d="M9 9h110v30H9z"/><path d="M9 24c0-8.284 6.716-15 15-15h80c8.284 0 15 6.716 15 15 0 8.284-6.716 15-15 15H24c-8.284 0-15-6.716-15-15z"/></mask><filter id="hvyfa" width="150" height="70" x="-11" y="-11" filterUnits="userSpaceOnUse"><feOffset in="SourceGraphic" result="FeOffset1281Out"/><feGaussianBlur in="FeOffset1281Out" result="FeGaussianBlur1282Out" stdDeviation="4 4"/></filter></defs><g><g><g><g filter="url(#hvyfa)"><path fill="none" d="M9 24c0-8.284 6.716-15 15-15h80c8.284 0 15 6.716 15 15 0 8.284-6.716 15-15 15H24c-8.284 0-15-6.716-15-15z" mask="url(&quot;#hvyfb&quot;)"/><path fill="#9bb4e8" fill-opacity=".7" d="M9 24c0-8.284 6.716-15 15-15h80c8.284 0 15 6.716 15 15 0 8.284-6.716 15-15 15H24c-8.284 0-15-6.716-15-15z"/></g><path fill="#9bb4e8" d="M9 24c0-8.284 6.716-15 15-15h80c8.284 0 15 6.716 15 15 0 8.284-6.716 15-15 15H24c-8.284 0-15-6.716-15-15z"/></g><g><path fill="#fff" d="M28.236 29c2.197 0 4.078-1.221 4.855-2.952.01-.022-3.118.812-3.018.518.044-.132 1.961-.832 3.358-1.65.803-.469 1.173-1.463 1.173-1.463s-1.353.657-2.037.823c-1.378.336-2.59.3-2.59.265 0-.076 2.014-.458 4.813-2.164 1.316-.802 1.674-2.185 1.674-2.185s-1.448.863-2.323 1.147c-2.075.676-3.969.879-3.969.788 0-.196 1.667-.654 3.434-1.51.919-.446 1.714-1.027 2.636-1.674C37.752 17.885 38 16 38 16s-1.488.96-2.214 1.279c-2.997 1.315-5.643 2.005-7.55 2.154-2.88.225-5.236 2.235-5.236 4.843C23 26.886 25.344 29 28.236 29z"/></g></g></g></svg>