<svg xmlns="http://www.w3.org/2000/svg" width="128" height="48" viewBox="0 0 128 48"><defs><mask id="6f44b" width="2" height="2" x="-1" y="-1"><path fill="#fff" d="M9 9h110v30H9z"/><path d="M9 24c0-8.284 6.716-15 15-15h80c8.284 0 15 6.716 15 15 0 8.284-6.716 15-15 15H24c-8.284 0-15-6.716-15-15z"/></mask><filter id="6f44a" width="150" height="70" x="-11" y="-11" filterUnits="userSpaceOnUse"><feOffset in="SourceGraphic" result="FeOffset1025Out"/><feGaussianBlur in="FeOffset1025Out" result="FeGaussianBlur1026Out" stdDeviation="4 4"/></filter></defs><g><g><g><g filter="url(#6f44a)"><path fill="none" d="M9 24c0-8.284 6.716-15 15-15h80c8.284 0 15 6.716 15 15 0 8.284-6.716 15-15 15H24c-8.284 0-15-6.716-15-15z" mask="url(&quot;#6f44b&quot;)"/><path fill="#b563ce" fill-opacity=".7" d="M9 24c0-8.284 6.716-15 15-15h80c8.284 0 15 6.716 15 15 0 8.284-6.716 15-15 15H24c-8.284 0-15-6.716-15-15z"/></g><path fill="#b563ce" d="M9 24c0-8.284 6.716-15 15-15h80c8.284 0 15 6.716 15 15 0 8.284-6.716 15-15 15H24c-8.284 0-15-6.716-15-15z"/></g><g><path fill="#fff" d="M23 22.62c0-3.656 3.358-6.62 7.5-6.62 4.142 0 7.5 2.964 7.5 6.62 0 1.946-.951 3.696-2.466 4.907.063.26.098.537.098.825 0 1.463-.884 2.648-1.974 2.648-.648 0-1.224-.42-1.584-1.067-.358.648-.932 1.067-1.579 1.067-.706 0-1.326-.5-1.673-1.252-.348.752-.97 1.252-1.677 1.252-1.09 0-1.974-1.185-1.974-2.648 0-.338.047-.661.133-.958C23.884 26.189 23 24.495 23 22.62zm7.401 3.492c2.453 0 4.441-1.505 4.441-3.361 0-1.856-1.988-3.36-4.44-3.36-2.453 0-4.441 1.504-4.441 3.36 0 1.856 1.988 3.36 4.44 3.36z"/></g></g></g></svg>