<svg xmlns="http://www.w3.org/2000/svg" width="128" height="48" viewBox="0 0 128 48"><defs><mask id="xq92b" width="2" height="2" x="-1" y="-1"><path fill="#fff" d="M9 9h110v30H9z"/><path d="M9 24c0-8.284 6.716-15 15-15h80c8.284 0 15 6.716 15 15 0 8.284-6.716 15-15 15H24c-8.284 0-15-6.716-15-15z"/></mask><filter id="xq92a" width="150" height="70" x="-11" y="-11" filterUnits="userSpaceOnUse"><feOffset in="SourceGraphic" result="FeOffset1564Out"/><feGaussianBlur in="FeOffset1564Out" result="FeGaussianBlur1565Out" stdDeviation="4 4"/></filter></defs><g><g><g><g filter="url(#xq92a)"><path fill="none" d="M9 24c0-8.284 6.716-15 15-15h80c8.284 0 15 6.716 15 15 0 8.284-6.716 15-15 15H24c-8.284 0-15-6.716-15-15z" mask="url(&quot;#xq92b&quot;)"/><path fill="#cec18c" fill-opacity=".7" d="M9 24c0-8.284 6.716-15 15-15h80c8.284 0 15 6.716 15 15 0 8.284-6.716 15-15 15H24c-8.284 0-15-6.716-15-15z"/></g><path fill="#cec18c" d="M9 24c0-8.284 6.716-15 15-15h80c8.284 0 15 6.716 15 15 0 8.284-6.716 15-15 15H24c-8.284 0-15-6.716-15-15z"/></g><g><path fill="#fff" d="M23 24.593c0-.043.015-.084.042-.117l4.469-5.385a.183.183 0 0 1 .14-.066h5.753a.183.183 0 0 1 .18.21l-.69 4.623a.183.183 0 0 1-.076.123l-6.686 4.611a.183.183 0 0 1-.16.023l-2.846-.929a.183.183 0 0 1-.126-.174zm9.993.437a.183.183 0 0 1 .255.049L34.54 27a.183.183 0 0 1-.045.25l-3.756 2.695a.183.183 0 0 1-.163.025l-3.249-1.064zM34.7 19h.29L37 25.364l-1.487 1.162-1.66-2.26a.183.183 0 0 1-.032-.14z"/></g></g></g></svg>