<svg xmlns="http://www.w3.org/2000/svg" width="128" height="48" viewBox="0 0 128 48"><defs><mask id="bp2gb" width="2" height="2" x="-1" y="-1"><path fill="#fff" d="M9 9h110v30H9z"/><path d="M9 24c0-8.284 6.716-15 15-15h80c8.284 0 15 6.716 15 15 0 8.284-6.716 15-15 15H24c-8.284 0-15-6.716-15-15z"/></mask><filter id="bp2ga" width="150" height="70" x="-11" y="-11" filterUnits="userSpaceOnUse"><feOffset in="SourceGraphic" result="FeOffset1057Out"/><feGaussianBlur in="FeOffset1057Out" result="FeGaussianBlur1058Out" stdDeviation="4 4"/></filter></defs><g><g><g><g filter="url(#bp2ga)"><path fill="none" d="M9 24c0-8.284 6.716-15 15-15h80c8.284 0 15 6.716 15 15 0 8.284-6.716 15-15 15H24c-8.284 0-15-6.716-15-15z" mask="url(&quot;#bp2gb&quot;)"/><path fill="#9dc130" fill-opacity=".7" d="M9 24c0-8.284 6.716-15 15-15h80c8.284 0 15 6.716 15 15 0 8.284-6.716 15-15 15H24c-8.284 0-15-6.716-15-15z"/></g><path fill="#9dc130" d="M9 24c0-8.284 6.716-15 15-15h80c8.284 0 15 6.716 15 15 0 8.284-6.716 15-15 15H24c-8.284 0-15-6.716-15-15z"/></g><g><path fill="#fff" d="M29.35 18.53l-2.279-2.716-1.149.964 1.805 2.151c-.83.306-1.39.663-1.39.663s1.584 2.1 3.814 2.1 3.544-2.254 3.544-2.254-.536-.27-1.324-.521l1.645-2.35-1.228-.86-1.994 2.848a6.511 6.511 0 0 0-.852-.06c-.2 0-.398.013-.592.035zM23 25.958c0 3.862 3.976 6.186 3.976 6.186s1.9-1.917 2.367-4.347c.466-2.43-.69-5.129-.69-5.129s-1.262-.435-1.857-.86c-.595-.424-1.496-1.532-1.496-1.532s-2.3 1.82-2.3 5.682zm11.677-5.682s-.9 1.108-1.496 1.533c-.595.424-1.857.86-1.857.86s-1.156 2.698-.69 5.128C31.1 30.227 33 32.144 33 32.144s3.977-2.324 3.977-6.186c0-3.861-2.3-5.682-2.3-5.682z"/></g></g></g></svg>