<svg xmlns="http://www.w3.org/2000/svg" width="128" height="48" viewBox="0 0 128 48"><defs><mask id="fwfvb" width="2" height="2" x="-1" y="-1"><path fill="#fff" d="M9 9h110v30H9z"/><path d="M9 24c0-8.284 6.716-15 15-15h80c8.284 0 15 6.716 15 15 0 8.284-6.716 15-15 15H24c-8.284 0-15-6.716-15-15z"/></mask><filter id="fwfva" width="150" height="70" x="-11" y="-11" filterUnits="userSpaceOnUse"><feOffset in="SourceGraphic" result="FeOffset1084Out"/><feGaussianBlur in="FeOffset1084Out" result="FeGaussianBlur1085Out" stdDeviation="4 4"/></filter></defs><g><g><g><g filter="url(#fwfva)"><path fill="none" d="M9 24c0-8.284 6.716-15 15-15h80c8.284 0 15 6.716 15 15 0 8.284-6.716 15-15 15H24c-8.284 0-15-6.716-15-15z" mask="url(&quot;#fwfvb&quot;)"/><path fill="#6970c5" fill-opacity=".7" d="M9 24c0-8.284 6.716-15 15-15h80c8.284 0 15 6.716 15 15 0 8.284-6.716 15-15 15H24c-8.284 0-15-6.716-15-15z"/></g><path fill="#6970c5" d="M9 24c0-8.284 6.716-15 15-15h80c8.284 0 15 6.716 15 15 0 8.284-6.716 15-15 15H24c-8.284 0-15-6.716-15-15z"/></g><g><path fill="#fff" d="M23 22.858C23 19.07 26.134 16 30 16s7 3.07 7 6.858a6.755 6.755 0 0 1-1.792 4.582c-.6.654 1.617.92 1.124 1.595-.27.368-1.728.839-3.243.917-1.263.064-2.709.064-3.2 0C26.056 29.447 23 26.645 23 22.858zm4.922.214c.604 0 1.094-.48 1.094-1.071h-1.641v-.929a1.067 1.067 0 0 0-.547.929c0 .591.49 1.071 1.094 1.071zm3.932 0a1.08 1.08 0 0 0 1.09-1.071c0-.394-.216-.738-.538-.924V22h-1.64a1.08 1.08 0 0 0 1.088 1.071z"/></g></g></g></svg>