<svg xmlns="http://www.w3.org/2000/svg" width="128" height="48" viewBox="0 0 128 48"><defs><mask id="zuclb" width="2" height="2" x="-1" y="-1"><path fill="#fff" d="M9 9h110v30H9z"/><path d="M9 24c0-8.284 6.716-15 15-15h80c8.284 0 15 6.716 15 15 0 8.284-6.716 15-15 15H24c-8.284 0-15-6.716-15-15z"/></mask><filter id="zucla" width="150" height="70" x="-11" y="-11" filterUnits="userSpaceOnUse"><feOffset in="SourceGraphic" result="FeOffset1596Out"/><feGaussianBlur in="FeOffset1596Out" result="FeGaussianBlur1597Out" stdDeviation="4 4"/></filter></defs><g><g><g><g filter="url(#zucla)"><path fill="none" d="M9 24c0-8.284 6.716-15 15-15h80c8.284 0 15 6.716 15 15 0 8.284-6.716 15-15 15H24c-8.284 0-15-6.716-15-15z" mask="url(&quot;#zuclb&quot;)"/><path fill="#5596a4" fill-opacity=".7" d="M9 24c0-8.284 6.716-15 15-15h80c8.284 0 15 6.716 15 15 0 8.284-6.716 15-15 15H24c-8.284 0-15-6.716-15-15z"/></g><path fill="#5596a4" d="M9 24c0-8.284 6.716-15 15-15h80c8.284 0 15 6.716 15 15 0 8.284-6.716 15-15 15H24c-8.284 0-15-6.716-15-15z"/></g><g><path fill="#fff" d="M26.64 17.184A.373.373 0 0 1 26.96 17h7.116c.133 0 .256.07.323.186l3.549 6.13a.373.373 0 0 1 0 .374l-3.55 6.124a.373.373 0 0 1-.322.186h-7.116a.373.373 0 0 1-.322-.184l-3.588-6.124a.373.373 0 0 1 0-.377zM30.5 27a3.5 3.5 0 1 0 0-7 3.5 3.5 0 0 0 0 7z"/></g></g></g></svg>