<svg viewBox="18.3 17 11.25 11.25">
	<defs>
		<linearGradient id="xw9ec" x1="24" x2="24" y1="9" y2="39" gradientUnits="userSpaceOnUse"><stop offset="0" stop-color="#fb9b51"/><stop offset="1" stop-color="#fbae46"/>
		</linearGradient>
		<linearGradient id="xw9ed" x1="24" x2="24" y1="9" y2="39" gradientUnits="userSpaceOnUse"><stop offset="0" stop-color="#4a90dd"/><stop offset="1" stop-color="#6cbde4"/>
		</linearGradient>
		<linearGradient id="xw9ee" x1="24" x2="24" y1="9" y2="39" gradientUnits="userSpaceOnUse"><stop offset="0" stop-color="#5fbc51"/><stop offset="1" stop-color="#5ac178"/>
		</linearGradient>
	</defs>
	<path transform="scale(0.46) translate(28.27,29) rotate(45 23.5 25)" fill="url(#xw9ee)" d="M18 25.88c0-3.381 5.273-8.88 5.273-8.88s6.969 5.499 6.969 8.88c0 3.001-2.162 5.499-5.014 6.02l-.308-3.026 1.703-2.642-1.95 1.596-.021-2.274 1.002-1.564-1.315.714-.816-2.844.176 3.061-1.343-.23 1.494 1.103.128 2.138-1.9-.968 1.907 1.906.327 3.127A6.12 6.12 0 0 1 18 25.88z"/>
	<path transform="scale(0.48) translate(30,19)" fill="url(#xw9ed)" d="M19 27.019c0-2.751 4.58-9.797 4.58-9.797a.5.5 0 0 1 .84 0S29 24.268 29 27.019C29 29.769 26.761 32 24 32s-5-2.23-5-4.981zm2.063.018s-.434 2.81 2.104 3.366c2.537.555 3.984-1.376 3.984-1.376s-2.032.806-3.713.257c-1.682-.55-2.375-2.247-2.375-2.247z"/>
	<path transform="scale(0.5) translate(20,17.3)" fill="url(#xw9ec)" d="M25.653 27.93a2.13 2.13 0 0 1-1.393.665c.507-.233.858-.739.858-1.324 0-.808-.669-1.463-1.494-1.463s-1.493.655-1.493 1.463c0 .225.052.438.144.629-.52-.41-.602-1.074-.602-1.074s-.576 2.391 1.011 3.517c1.588 1.125 4.697.158 4.697.158s-4.45 3.13-7.748-.277c-2.84-2.936-.74-6.8-.74-6.8s-.092.358-.092.774c0 .416.226.733.226.733s.673-1.419 1.197-1.996c.878-.966 2.149-1.61 2.647-2.167 1.195-1.336.462-3.768.462-3.768s1.347 1.187 1.722 2.72c.376 1.532-.868 3.62.694 3.538 1.562-.082.204-2.49.204-2.49s3.543 1.862 3.279 5.119c-.265 3.256-3.873 3.997-3.873 3.997s.943-.775 1.126-1.444c.184-.67-.172-2.045-.172-2.045s-.257 1.12-.66 1.535z"/>
</svg>