<svg height="512pt" viewBox="0 0 512 512" width="512pt" xmlns="http://www.w3.org/2000/svg"><path d="m196 301c57.890625 0 105-47.109375 105-105s-47.109375-105-105-105-105 47.109375-105 105 47.109375 105 105 105zm53.027344-158.027344-21.210938 21.210938c-26.910156-26.886719-76.789062-9.355469-76.789062 31.816406 0 41.078125 49.820312 58.714844 76.789062 31.816406l21.210938 21.210938c-14.148438 14.148437-32.972656 21.957031-53.027344 21.957031-41.429688 0-74.972656-33.480469-74.972656-74.984375 0-67.484375 82.414062-98.613281 128-53.027344zm0 0"/><path d="m61 512h346.382812c-9.519531-12.574219-15.382812-28.050781-15.382812-45v-467h-392v452c0 33 28 60 61 60zm135-451c74.441406 0 135 60.558594 135 135s-60.558594 135-135 135-135-60.558594-135-135 60.558594-135 135-135zm-135 301h270v30h-270zm0 60h270v30h-270zm0 0"/><path d="m422 467c0 24.851562 20.148438 45 45 45s45-20.148438 45-45v-226h-90zm0 0"/></svg>