<svg xmlns="http://www.w3.org/2000/svg" width="64" height="64" viewBox="8.6 8.6 30.5 30.5"><defs><mask id="i2q5b" width="2" height="2" x="-1" y="-1"><path fill="#fff" d="M9 9h30v30H9z"/><path d="M9 24c0-8.284 6.716-15 15-15 8.284 0 15 6.716 15 15 0 8.284-6.716 15-15 15-8.284 0-15-6.716-15-15z"/></mask><filter id="i2q5a" width="70" height="70" x="-11" y="-11" filterUnits="userSpaceOnUse"><feOffset in="SourceGraphic" result="FeOffset2077Out"/><feGaussianBlur in="FeOffset2077Out" result="FeGaussianBlur2078Out" stdDeviation="4 4"/></filter><linearGradient id="i2q5c" x1="24" x2="24" y1="9" y2="38.61" gradientUnits="userSpaceOnUse"><stop offset="0" stop-color="#9298a4"/><stop offset="1" stop-color="#a3a49e"/></linearGradient></defs><g><g><g><g filter="url(#i2q5a)"><path fill="none" d="M9 24c0-8.284 6.716-15 15-15 8.284 0 15 6.716 15 15 0 8.284-6.716 15-15 15-8.284 0-15-6.716-15-15z" mask="url(&quot;#i2q5b&quot;)"/></g><path fill="url(#i2q5c)" d="M9 24c0-8.284 6.716-15 15-15 8.284 0 15 6.716 15 15 0 8.284-6.716 15-15 15-8.284 0-15-6.716-15-15z"/></g><g><path fill="#fff" d="M17 24a7 7 0 1 1 14 0 7 7 0 0 1-14 0zm7 4a4 4 0 1 0 0-8 4 4 0 0 0 0 8z"/></g></g></g></svg>