<svg xmlns="http://www.w3.org/2000/svg" width="64" height="64" viewBox="8.6 8.6 30.5 30.5"><defs><mask id="iwe9b" width="2" height="2" x="-1" y="-1"><path fill="#fff" d="M9 9h30v30H9z"/><path d="M9 24c0-8.284 6.716-15 15-15 8.284 0 15 6.716 15 15 0 8.284-6.716 15-15 15-8.284 0-15-6.716-15-15z"/></mask><filter id="iwe9a" width="70" height="70" x="-11" y="-11" filterUnits="userSpaceOnUse"><feOffset in="SourceGraphic" result="FeOffset2227Out"/><feGaussianBlur in="FeOffset2227Out" result="FeGaussianBlur2228Out" stdDeviation="4 4"/></filter><linearGradient id="iwe9c" x1="24" x2="24" y1="9" y2="39" gradientUnits="userSpaceOnUse"><stop offset="0" stop-color="#4a90dd"/><stop offset="1" stop-color="#6cbde4"/></linearGradient></defs><g><g><g><g filter="url(#iwe9a)"><path fill="none" d="M9 24c0-8.284 6.716-15 15-15 8.284 0 15 6.716 15 15 0 8.284-6.716 15-15 15-8.284 0-15-6.716-15-15z" mask="url(&quot;#iwe9b&quot;)"/><path fill="#559edf" fill-opacity=".7" d="M9 24c0-8.284 6.716-15 15-15 8.284 0 15 6.716 15 15 0 8.284-6.716 15-15 15-8.284 0-15-6.716-15-15z"/></g><path fill="url(#iwe9c)" d="M9 24c0-8.284 6.716-15 15-15 8.284 0 15 6.716 15 15 0 8.284-6.716 15-15 15-8.284 0-15-6.716-15-15z"/></g><g><path fill="#fff" d="M19 27.019c0-2.751 4.58-9.797 4.58-9.797a.5.5 0 0 1 .84 0S29 24.268 29 27.019C29 29.769 26.761 32 24 32s-5-2.23-5-4.981zm2.063.018s-.434 2.81 2.104 3.366c2.537.555 3.984-1.376 3.984-1.376s-2.032.806-3.713.257c-1.682-.55-2.375-2.247-2.375-2.247z"/></g></g></g></svg>