<svg xmlns="http://www.w3.org/2000/svg" width="64" height="64" viewBox="8.6 8.6 30.5 30.5"><defs><mask id="d784b" width="2" height="2" x="-1" y="-1"><path fill="#fff" d="M9 9h30v30H9z"/><path d="M9 24c0-8.284 6.716-15 15-15 8.284 0 15 6.716 15 15 0 8.284-6.716 15-15 15-8.284 0-15-6.716-15-15z"/></mask><filter id="d784a" width="70" height="70" x="-11" y="-11" filterUnits="userSpaceOnUse"><feOffset in="SourceGraphic" result="FeOffset1960Out"/><feGaussianBlur in="FeOffset1960Out" result="FeGaussianBlur1961Out" stdDeviation="4 4"/></filter><linearGradient id="d784c" x1="24" x2="24" y1="9" y2="39" gradientUnits="userSpaceOnUse"><stop offset="0" stop-color="#5fbc51"/><stop offset="1" stop-color="#5ac178"/></linearGradient></defs><g><g><g><g filter="url(#d784a)"><path fill="none" d="M9 24c0-8.284 6.716-15 15-15 8.284 0 15 6.716 15 15 0 8.284-6.716 15-15 15-8.284 0-15-6.716-15-15z" mask="url(&quot;#d784b&quot;)"/><path fill="#64b954" fill-opacity=".7" d="M9 24c0-8.284 6.716-15 15-15 8.284 0 15 6.716 15 15 0 8.284-6.716 15-15 15-8.284 0-15-6.716-15-15z"/></g><path fill="url(#d784c)" d="M9 24c0-8.284 6.716-15 15-15 8.284 0 15 6.716 15 15 0 8.284-6.716 15-15 15-8.284 0-15-6.716-15-15z"/></g><g transform="rotate(45 23.5 25)"><path fill="#fff" d="M18 25.88c0-3.381 5.273-8.88 5.273-8.88s6.969 5.499 6.969 8.88c0 3.001-2.162 5.499-5.014 6.02l-.308-3.026 1.703-2.642-1.95 1.596-.021-2.274 1.002-1.564-1.315.714-.816-2.844.176 3.061-1.343-.23 1.494 1.103.128 2.138-1.9-.968 1.907 1.906.327 3.127A6.12 6.12 0 0 1 18 25.88z"/></g></g></g></svg>