<svg xmlns="http://www.w3.org/2000/svg" width="64" height="64" viewBox="8.6 8.6 30.5 30.5"><defs><mask id="k7g8b" width="2" height="2" x="-1" y="-1"><path fill="#fff" d="M9 9h30v30H9z"/><path d="M9 24c0-8.284 6.716-15 15-15 8.284 0 15 6.716 15 15 0 8.284-6.716 15-15 15-8.284 0-15-6.716-15-15z"/></mask><filter id="k7g8a" width="70" height="70" x="-11" y="-11" filterUnits="userSpaceOnUse"><feOffset in="SourceGraphic" result="FeOffset1750Out"/><feGaussianBlur in="FeOffset1750Out" result="FeGaussianBlur1751Out" stdDeviation="4 4"/></filter><linearGradient id="k7g8c" x1="24" x2="24" y1="9" y2="38.61" gradientUnits="userSpaceOnUse"><stop offset="0" stop-color="#edd53e"/><stop offset="1" stop-color="#fbe273"/></linearGradient></defs><g><g><g><g filter="url(#k7g8a)"><path fill="none" d="M9 24c0-8.284 6.716-15 15-15 8.284 0 15 6.716 15 15 0 8.284-6.716 15-15 15-8.284 0-15-6.716-15-15z" mask="url(&quot;#k7g8b&quot;)"/><path fill="#f4d556" fill-opacity=".7" d="M9 24c0-8.284 6.716-15 15-15 8.284 0 15 6.716 15 15 0 8.284-6.716 15-15 15-8.284 0-15-6.716-15-15z"/></g><path fill="url(#k7g8c)" d="M9 24c0-8.284 6.716-15 15-15 8.284 0 15 6.716 15 15 0 8.284-6.716 15-15 15-8.284 0-15-6.716-15-15z"/></g><g><path fill="#fff" d="M20.963 18.584A.44.44 0 0 1 21.38 18h4.707a.44.44 0 0 1 .42.31l2.318 7.487a.44.44 0 0 1-.42.57h-2.882a.22.22 0 0 0-.211.28l1.443 5.08a.44.44 0 0 1-.775.384l-6.45-8.577a.44.44 0 0 1 .352-.704h2.243a.22.22 0 0 0 .208-.292z"/></g></g></g></svg>