<svg xmlns="http://www.w3.org/2000/svg" width="64" height="64" viewBox="8.6 8.6 30.5 30.5"><defs><mask id="u9kpb" width="2" height="2" x="-1" y="-1"><path fill="#fff" d="M9 9h30v30H9z"/><path d="M9 24c0-8.284 6.716-15 15-15 8.284 0 15 6.716 15 15 0 8.284-6.716 15-15 15-8.284 0-15-6.716-15-15z"/></mask><filter id="u9kpa" width="70" height="70" x="-11" y="-11" filterUnits="userSpaceOnUse"><feOffset in="SourceGraphic" result="FeOffset2020Out"/><feGaussianBlur in="FeOffset2020Out" result="FeGaussianBlur2021Out" stdDeviation="4 4"/></filter><linearGradient id="u9kpc" x1="24" x2="24" y1="9" y2="39" gradientUnits="userSpaceOnUse"><stop offset="0" stop-color="#70ccbd"/><stop offset="1" stop-color="#8cddd4"/></linearGradient></defs><g><g><g><g filter="url(#u9kpa)"><path fill="none" d="M9 24c0-8.284 6.716-15 15-15 8.284 0 15 6.716 15 15 0 8.284-6.716 15-15 15-8.284 0-15-6.716-15-15z" mask="url(&quot;#u9kpb&quot;)"/><path fill="#7ed4c9" fill-opacity=".7" d="M9 24c0-8.284 6.716-15 15-15 8.284 0 15 6.716 15 15 0 8.284-6.716 15-15 15-8.284 0-15-6.716-15-15z"/></g><path fill="url(#u9kpc)" d="M9 24c0-8.284 6.716-15 15-15 8.284 0 15 6.716 15 15 0 8.284-6.716 15-15 15-8.284 0-15-6.716-15-15z"/></g><g><g transform="rotate(31 26.5 20)"><path fill="#fff" d="M26.191 16.32l2.403 3.897-2.436 3.7-2.268-3.68z"/></g><g transform="rotate(89 28.5 24.5)"><path fill="#fff" d="M28.179 20.19l2.191 3.991-2.333 3.915-2.007-3.988z"/></g><g transform="rotate(89 19.5 24.5)"><path fill="#fff" d="M19.569 20.19l2.191 3.991-2.333 3.915-2.007-3.988z"/></g><g transform="rotate(-32 21.5 20)"><path fill="#fff" d="M21.551 16.21l2.403 3.897-2.436 3.7-2.268-3.68z"/></g><g transform="rotate(148 25.5 28)"><path fill="#fff" d="M26.161 24.22l2.403 3.897-2.436 3.7-2.268-3.68z"/></g><g transform="rotate(211 21.5 28)"><path fill="#fff" d="M21.551 24.17l2.403 3.897-2.436 3.7-2.268-3.68z"/></g></g></g></g></svg>