<svg xmlns="http://www.w3.org/2000/svg" width="64" height="64" viewBox="8.6 8.6 30.5 30.5"><defs><mask id="60olb" width="2" height="2" x="-1" y="-1"><path fill="#fff" d="M9 9h30v30H9z"/><path d="M9 24c0-8.284 6.716-15 15-15 8.284 0 15 6.716 15 15 0 8.284-6.716 15-15 15-8.284 0-15-6.716-15-15z"/></mask><filter id="60ola" width="70" height="70" x="-11" y="-11" filterUnits="userSpaceOnUse"><feOffset in="SourceGraphic" result="FeOffset1690Out"/><feGaussianBlur in="FeOffset1690Out" result="FeGaussianBlur1691Out" stdDeviation="4 4"/></filter><linearGradient id="60olc" x1="24" x2="24" y1="9" y2="38.61" gradientUnits="userSpaceOnUse"><stop offset="0" stop-color="#595761"/><stop offset="1" stop-color="#6e7587"/></linearGradient></defs><g><g><g><g filter="url(#60ola)"><path fill="none" d="M9 24c0-8.284 6.716-15 15-15 8.284 0 15 6.716 15 15 0 8.284-6.716 15-15 15-8.284 0-15-6.716-15-15z" mask="url(&quot;#60olb&quot;)"/><path fill="#5d596a" fill-opacity=".7" d="M9 24c0-8.284 6.716-15 15-15 8.284 0 15 6.716 15 15 0 8.284-6.716 15-15 15-8.284 0-15-6.716-15-15z"/></g><path fill="url(#60olc)" d="M9 24c0-8.284 6.716-15 15-15 8.284 0 15 6.716 15 15 0 8.284-6.716 15-15 15-8.284 0-15-6.716-15-15z"/></g><g><path fill="#fff" d="M24.097 18.75a5.347 5.347 0 1 1-.816 10.633c1.593-1.078 2.663-3.085 2.663-5.383 0-2.186-.968-4.108-2.433-5.218.192-.021.388-.032.586-.032zM24 31a7 7 0 1 0 0-14 7 7 0 0 0 0 14z"/></g></g></g></svg>