<svg xmlns="http://www.w3.org/2000/svg" width="64" height="64" viewBox="8.6 8.6 30.5 30.5"><defs><mask id="jqi3b" width="2" height="2" x="-1" y="-1"><path fill="#fff" d="M9 9h30v30H9z"/><path d="M9 24c0-8.284 6.716-15 15-15 8.284 0 15 6.716 15 15 0 8.284-6.716 15-15 15-8.284 0-15-6.716-15-15z"/></mask><filter id="jqi3a" width="70" height="70" x="-11" y="-11" filterUnits="userSpaceOnUse"><feOffset in="SourceGraphic" result="FeOffset1780Out"/><feGaussianBlur in="FeOffset1780Out" result="FeGaussianBlur1781Out" stdDeviation="4 4"/></filter><linearGradient id="jqi3c" x1="24" x2="24" y1="9" y2="38.51" gradientUnits="userSpaceOnUse"><stop offset="0" stop-color="#ec8ce5"/><stop offset="1" stop-color="#f3a7e7"/></linearGradient></defs><g><g><g><g filter="url(#jqi3a)"><path fill="none" d="M9 24c0-8.284 6.716-15 15-15 8.284 0 15 6.716 15 15 0 8.284-6.716 15-15 15-8.284 0-15-6.716-15-15z" mask="url(&quot;#jqi3b&quot;)"/><path fill="#f294e9" fill-opacity=".7" d="M9 24c0-8.284 6.716-15 15-15 8.284 0 15 6.716 15 15 0 8.284-6.716 15-15 15-8.284 0-15-6.716-15-15z"/></g><path fill="url(#jqi3c)" d="M9 24c0-8.284 6.716-15 15-15 8.284 0 15 6.716 15 15 0 8.284-6.716 15-15 15-8.284 0-15-6.716-15-15z"/></g><g><path fill="#fff" d="M19.77 28.454a.243.243 0 0 1-.3-.302l.601-2.031-3.443-1.883a.243.243 0 0 1 0-.426l3.472-1.898-.63-2.13a.243.243 0 0 1 .3-.302l2.13.618 1.882-3.442a.243.243 0 0 1 .426 0l1.883 3.445 2.139-.62a.243.243 0 0 1 .3.301l-.631 2.134 3.463 1.894a.243.243 0 0 1 0 .426l-3.434 1.878.602 2.036a.243.243 0 0 1-.3.302l-2.085-.605-1.937 3.543a.243.243 0 0 1-.426 0l-1.936-3.54zm4.043-2.036a.243.243 0 0 0 .425 0l.76-1.39 1.39-.76a.243.243 0 0 0 0-.425l-1.39-.76-.76-1.39a.243.243 0 0 0-.426 0l-.76 1.39-1.39.76a.243.243 0 0 0 0 .425l1.39.76z"/></g></g></g></svg>