<svg xmlns="http://www.w3.org/2000/svg" width="64" height="64" viewBox="8.6 8.6 30.5 30.5"><defs><mask id="8qhdb" width="2" height="2" x="-1" y="-1"><path fill="#fff" d="M9 9h30v30H9z"/><path d="M9 24c0-8.284 6.716-15 15-15 8.284 0 15 6.716 15 15 0 8.284-6.716 15-15 15-8.284 0-15-6.716-15-15z"/></mask><filter id="8qhda" width="70" height="70" x="-11" y="-11" filterUnits="userSpaceOnUse"><feOffset in="SourceGraphic" result="FeOffset1810Out"/><feGaussianBlur in="FeOffset1810Out" result="FeGaussianBlur1811Out" stdDeviation="4 4"/></filter><linearGradient id="8qhdc" x1="24" x2="24" y1="9" y2="38.61" gradientUnits="userSpaceOnUse"><stop offset="0" stop-color="#ce4265"/><stop offset="1" stop-color="#e74347"/></linearGradient></defs><g><g><g><g filter="url(#8qhda)"><path fill="none" d="M9 24c0-8.284 6.716-15 15-15 8.284 0 15 6.716 15 15 0 8.284-6.716 15-15 15-8.284 0-15-6.716-15-15z" mask="url(&quot;#8qhdb&quot;)"/><path fill="#d4445d" fill-opacity=".7" d="M9 24c0-8.284 6.716-15 15-15 8.284 0 15 6.716 15 15 0 8.284-6.716 15-15 15-8.284 0-15-6.716-15-15z"/></g><path fill="url(#8qhdc)" d="M9 24c0-8.284 6.716-15 15-15 8.284 0 15 6.716 15 15 0 8.284-6.716 15-15 15-8.284 0-15-6.716-15-15z"/></g><g><path fill="#fff" d="M17 25.625c0-1.7.73-3.244 1.92-4.386-.002 1.656.026 3.37.155 3.34.387-.089 0-6.547 0-6.547l-.039.055V18a1 1 0 0 1 1-1h1.31a1 1 0 0 1 .94.657.999.999 0 0 1 .805-.407H24.4a1 1 0 0 1 .993.882.995.995 0 0 1 .498-.132H27.2a1 1 0 0 1 1 1h.018c.082 0 .16.01.237.028.075-.018.154-.028.236-.028H30a1 1 0 0 1 1 1v6.093a1 1 0 0 1-.053.322C30.519 29.563 27.572 32 24 32c-3.866 0-7-2.854-7-6.375z"/></g></g></g></svg>