<svg xmlns="http://www.w3.org/2000/svg" width="64" height="64" viewBox="8.6 8.6 30.5 30.5"><defs><mask id="4eq3b" width="2" height="2" x="-1" y="-1"><path fill="#fff" d="M9 9h30v30H9z"/><path d="M9 24c0-8.284 6.716-15 15-15 8.284 0 15 6.716 15 15 0 8.284-6.716 15-15 15-8.284 0-15-6.716-15-15z"/></mask><filter id="4eq3a" width="70" height="70" x="-11" y="-11" filterUnits="userSpaceOnUse"><feOffset in="SourceGraphic" result="FeOffset1990Out"/><feGaussianBlur in="FeOffset1990Out" result="FeGaussianBlur1991Out" stdDeviation="4 4"/></filter><linearGradient id="4eq3c" x1="24" x2="24" y1="9" y2="38.61" gradientUnits="userSpaceOnUse"><stop offset="0" stop-color="#dc7545"/><stop offset="1" stop-color="#d29463"/></linearGradient></defs><g><g><g><g filter="url(#4eq3a)"><path fill="none" d="M9 24c0-8.284 6.716-15 15-15 8.284 0 15 6.716 15 15 0 8.284-6.716 15-15 15-8.284 0-15-6.716-15-15z" mask="url(&quot;#4eq3b&quot;)"/><path fill="#d88255" fill-opacity=".7" d="M9 24c0-8.284 6.716-15 15-15 8.284 0 15 6.716 15 15 0 8.284-6.716 15-15 15-8.284 0-15-6.716-15-15z"/></g><path fill="url(#4eq3c)" d="M9 24c0-8.284 6.716-15 15-15 8.284 0 15 6.716 15 15 0 8.284-6.716 15-15 15-8.284 0-15-6.716-15-15z"/></g><g><path fill="#fff" d="M23.577 18.134a.201.201 0 0 1 .19-.134h3.862c.085 0 .161.054.19.135l3.683 10.555a.201.201 0 0 1-.19.267H19.743zm-4.33 3.284a.201.201 0 0 1 .19-.13h2.092a.201.201 0 0 1 .189.269l-2.648 7.31a.201.201 0 0 1-.189.133h-2.183a.201.201 0 0 1-.189-.272z"/></g></g></g></svg>