<svg xmlns="http://www.w3.org/2000/svg" width="64" height="64" viewBox="8.6 8.6 30.5 30.5"><defs><mask id="e5i4b" width="2" height="2" x="-1" y="-1"><path fill="#fff" d="M9 9h30v30H9z"/><path d="M9 24c0-8.284 6.716-15 15-15 8.284 0 15 6.716 15 15 0 8.284-6.716 15-15 15-8.284 0-15-6.716-15-15z"/></mask><filter id="e5i4a" width="70" height="70" x="-11" y="-11" filterUnits="userSpaceOnUse"><feOffset in="SourceGraphic" result="FeOffset2167Out"/><feGaussianBlur in="FeOffset2167Out" result="FeGaussianBlur2168Out" stdDeviation="4 4"/></filter><linearGradient id="e5i4c" x1="24" x2="24" y1="9" y2="39" gradientUnits="userSpaceOnUse"><stop offset="0" stop-color="#c5b489"/><stop offset="1" stop-color="#d7cd90"/></linearGradient></defs><g><g><g><g filter="url(#e5i4a)"><path fill="none" d="M9 24c0-8.284 6.716-15 15-15 8.284 0 15 6.716 15 15 0 8.284-6.716 15-15 15-8.284 0-15-6.716-15-15z" mask="url(&quot;#e5i4b&quot;)"/><path fill="#cbc194" fill-opacity=".7" d="M9 24c0-8.284 6.716-15 15-15 8.284 0 15 6.716 15 15 0 8.284-6.716 15-15 15-8.284 0-15-6.716-15-15z"/></g><path fill="url(#e5i4c)" d="M9 24c0-8.284 6.716-15 15-15 8.284 0 15 6.716 15 15 0 8.284-6.716 15-15 15-8.284 0-15-6.716-15-15z"/></g><g><path fill="#fff" d="M17 24.593c0-.043.015-.084.042-.117l4.469-5.385a.183.183 0 0 1 .14-.066h5.753a.183.183 0 0 1 .18.21l-.69 4.623a.183.183 0 0 1-.076.123l-6.686 4.611a.183.183 0 0 1-.16.023l-2.846-.929a.183.183 0 0 1-.126-.174zm9.993.437a.183.183 0 0 1 .255.049L28.54 27a.183.183 0 0 1-.045.25l-3.756 2.695a.183.183 0 0 1-.163.025l-3.249-1.064zM28.7 19h.29L31 25.364l-1.487 1.162-1.66-2.26a.183.183 0 0 1-.032-.14z"/></g></g></g></svg>