<svg xmlns="http://www.w3.org/2000/svg" width="64" height="64" viewBox="8.6 8.6 30.5 30.5"><defs><mask id="xw9eb" width="2" height="2" x="-1" y="-1"><path fill="#fff" d="M9 9h30v30H9z"/><path d="M9 24c0-8.284 6.716-15 15-15 8.284 0 15 6.716 15 15 0 8.284-6.716 15-15 15-8.284 0-15-6.716-15-15z"/></mask><filter id="xw9ea" width="70" height="70" x="-11" y="-11" filterUnits="userSpaceOnUse"><feOffset in="SourceGraphic" result="FeOffset1660Out"/><feGaussianBlur in="FeOffset1660Out" result="FeGaussianBlur1661Out" stdDeviation="4 4"/></filter><linearGradient id="xw9ec" x1="24" x2="24" y1="9" y2="39" gradientUnits="userSpaceOnUse"><stop offset="0" stop-color="#92bc2c"/><stop offset="1" stop-color="#afc836"/></linearGradient></defs><g><g><g><g filter="url(#xw9ea)"><path fill="none" d="M9 24c0-8.284 6.716-15 15-15 8.284 0 15 6.716 15 15 0 8.284-6.716 15-15 15-8.284 0-15-6.716-15-15z" mask="url(&quot;#xw9eb&quot;)"/><path fill="#98c32f" fill-opacity=".7" d="M9 24c0-8.284 6.716-15 15-15 8.284 0 15 6.716 15 15 0 8.284-6.716 15-15 15-8.284 0-15-6.716-15-15z"/></g><path fill="url(#xw9ec)" d="M9 24c0-8.284 6.716-15 15-15 8.284 0 15 6.716 15 15 0 8.284-6.716 15-15 15-8.284 0-15-6.716-15-15z"/></g><g><path fill="#fff" d="M23.35 18.53l-2.279-2.716-1.149.964 1.805 2.151c-.83.306-1.39.663-1.39.663s1.584 2.1 3.814 2.1 3.544-2.254 3.544-2.254-.536-.27-1.324-.521l1.645-2.35-1.228-.86-1.994 2.848a6.511 6.511 0 0 0-.852-.06c-.2 0-.398.013-.592.035zM17 25.958c0 3.862 3.976 6.186 3.976 6.186s1.9-1.917 2.367-4.347c.466-2.43-.69-5.129-.69-5.129s-1.262-.435-1.857-.86c-.595-.424-1.496-1.532-1.496-1.532s-2.3 1.82-2.3 5.682zm11.677-5.682s-.9 1.108-1.496 1.533c-.595.424-1.857.86-1.857.86s-1.156 2.698-.69 5.128C25.1 30.227 27 32.144 27 32.144s3.977-2.324 3.977-6.186c0-3.861-2.3-5.682-2.3-5.682z"/></g></g></g></svg>