<svg xmlns="http://www.w3.org/2000/svg" width="64" height="64" viewBox="8.6 8.6 30.5 30.5"><defs><mask id="vzjlb" width="2" height="2" x="-1" y="-1"><path fill="#fff" d="M9 9h30v30H9z"/><path d="M9 24c0-8.284 6.716-15 15-15 8.284 0 15 6.716 15 15 0 8.284-6.716 15-15 15-8.284 0-15-6.716-15-15z"/></mask><filter id="vzjla" width="70" height="70" x="-11" y="-11" filterUnits="userSpaceOnUse"><feOffset in="SourceGraphic" result="FeOffset1930Out"/><feGaussianBlur in="FeOffset1930Out" result="FeGaussianBlur1931Out" stdDeviation="4 4"/></filter><linearGradient id="vzjlc" x1="24" x2="24" y1="9" y2="38.61" gradientUnits="userSpaceOnUse"><stop offset="0" stop-color="#516aac"/><stop offset="1" stop-color="#7773d4"/></linearGradient></defs><g><g><g><g filter="url(#vzjla)"><path fill="none" d="M9 24c0-8.284 6.716-15 15-15 8.284 0 15 6.716 15 15 0 8.284-6.716 15-15 15-8.284 0-15-6.716-15-15z" mask="url(&quot;#vzjlb&quot;)"/><path fill="#656cc6" fill-opacity=".7" d="M9 24c0-8.284 6.716-15 15-15 8.284 0 15 6.716 15 15 0 8.284-6.716 15-15 15-8.284 0-15-6.716-15-15z"/></g><path fill="url(#vzjlc)" d="M9 24c0-8.284 6.716-15 15-15 8.284 0 15 6.716 15 15 0 8.284-6.716 15-15 15-8.284 0-15-6.716-15-15z"/></g><g><path fill="#fff" d="M17 23.858C17 20.07 20.134 17 24 17s7 3.07 7 6.858a6.755 6.755 0 0 1-1.792 4.582c-.6.654 1.617.92 1.124 1.595-.27.368-1.728.839-3.243.917-1.263.064-2.709.064-3.2 0C20.056 30.447 17 27.645 17 23.858zm4.922.214c.604 0 1.094-.48 1.094-1.071h-1.641v-.929a1.067 1.067 0 0 0-.547.929c0 .591.49 1.071 1.094 1.071zm3.932 0a1.08 1.08 0 0 0 1.09-1.071c0-.394-.216-.738-.538-.924V23h-1.64a1.08 1.08 0 0 0 1.088 1.071z"/></g></g></g></svg>