<svg xmlns="http://www.w3.org/2000/svg" width="64" height="64" viewBox="8.6 8.6 30.5 30.5"><defs><mask id="jtmbb" width="2" height="2" x="-1" y="-1"><path fill="#fff" d="M9 9h30v30H9z"/><path d="M9 24c0-8.284 6.716-15 15-15 8.284 0 15 6.716 15 15 0 8.284-6.716 15-15 15-8.284 0-15-6.716-15-15z"/></mask><filter id="jtmba" width="70" height="70" x="-11" y="-11" filterUnits="userSpaceOnUse"><feOffset in="SourceGraphic" result="FeOffset2197Out"/><feGaussianBlur in="FeOffset2197Out" result="FeGaussianBlur2198Out" stdDeviation="4 4"/></filter><linearGradient id="jtmbc" x1="24" x2="24" y1="9" y2="39" gradientUnits="userSpaceOnUse"><stop offset="0" stop-color="#52869d"/><stop offset="1" stop-color="#58a6aa"/></linearGradient></defs><g><g><g><g filter="url(#jtmba)"><path fill="none" d="M9 24c0-8.284 6.716-15 15-15 8.284 0 15 6.716 15 15 0 8.284-6.716 15-15 15-8.284 0-15-6.716-15-15z" mask="url(&quot;#jtmbb&quot;)"/><path fill="#5094a1" fill-opacity=".7" d="M9 24c0-8.284 6.716-15 15-15 8.284 0 15 6.716 15 15 0 8.284-6.716 15-15 15-8.284 0-15-6.716-15-15z"/></g><path fill="url(#jtmbc)" d="M9 24c0-8.284 6.716-15 15-15 8.284 0 15 6.716 15 15 0 8.284-6.716 15-15 15-8.284 0-15-6.716-15-15z"/></g><g><path fill="#fff" d="M20.14 18.184A.373.373 0 0 1 20.46 18h7.116c.133 0 .256.07.323.186l3.549 6.13a.373.373 0 0 1 0 .374l-3.55 6.124a.373.373 0 0 1-.322.186h-7.116a.373.373 0 0 1-.322-.184l-3.588-6.124a.373.373 0 0 1 0-.377zM24 28a3.5 3.5 0 1 0 0-7 3.5 3.5 0 0 0 0 7z"/></g></g></g></svg>