<svg id="Layer_1" enable-background="new 0 0 512 512" height="512" viewBox="0 0 512 512" width="512" xmlns="http://www.w3.org/2000/svg"><g><path d="m208.8 333.2c1.6 0 3.2.1 4.9.4-2.3-23.9-13.7-37.7-34.1-40.8-6-.9-14.2 0-22.1 1-3 .4-6 .7-8.8.9-2.2 4.4-6.7 7.2-11.6 7.2-.7 0-1.5-.1-2.2-.2-5.3-.9-9.5-5-10.6-10.3-3.5-1.4-7.2-3.2-11-4.9-7-3.3-14.1-6.6-19-7.4-31.2-4.9-49.6 13.7-56.3 56.9-3.5 22.3 1.4 45.7 13.4 64 13.5 20.7 34.7 34 61.4 38.5 13.5 2.2 27.4.9 40.2-3.9-1.9-8-2.9-16.2-2.9-24.5-.1-63.5 31.9-76.9 58.7-76.9zm-139.9 49.3c-2.7 1.9-6.5 1.2-8.4-1.5-18-25.9-4.6-44.2-4-45 2-2.6 5.8-3.2 8.4-1.1 2.6 2 3.1 5.7 1.2 8.4-.4.6-8.6 12.5 4.2 30.9 2 2.7 1.3 6.4-1.4 8.3z"/><path d="m295.3 345.7c-.7 0-1.3 0-2 .1-.7.2-1.5.3-2.3.2-5.9 1-11.7 2.3-17.3 4-2.7.8-5.4 1.5-8 2.1-1.6 5.1-6.2 8.7-11.5 9.1-.3 0-.6 0-.9 0-5.4 0-10.2-3.4-12.1-8.4-3.9-.9-8-2.1-12.2-3.3-7.4-2.1-15-4.4-19.9-4.4-31.5 0-46.8 21.2-46.8 64.9 0 22.6 8.4 44.9 23.1 61.2 16.5 18.4 39.5 28.3 66.5 28.6 21.3.3 42.1-8.4 58.4-24.6 11-10.9 19.2-24.2 24.1-38.8 0-.1.1-.2.1-.3 2.8-8.4 4.2-17.3 4.3-26.2-.3-23.8-5.9-64.2-43.5-64.2zm-104.3 94.9c-2.7 1.9-6.5 1.2-8.4-1.5-18-25.9-4.6-44.2-4-45 2-2.6 5.8-3.1 8.4-1.1s3.1 5.7 1.2 8.3c-.4.6-8.6 12.5 4.2 30.9 2 2.7 1.3 6.5-1.4 8.4z"/><path d="m470.8 327.5c-6.1-18.3-14.6-32.4-24.5-40.7-10.9-9.2-23-11.3-37-6.6-5.7 1.9-12.6 6.5-19.2 11-3.6 2.5-7.2 4.8-10.6 6.8-.4 7.2-6.6 12.6-13.8 12.1-4-.2-7.6-2.3-9.9-5.6-2.7.2-5.5.3-8.4.4-7.7.3-15.6.6-20.3 2.2-15.1 5.1-24.4 13.8-28.3 26.7 32.8 1.9 51.6 29.5 51.6 76.3 0 8.6-1.2 17.1-3.5 25.4 15.5 8.2 39.2 14.6 70 4.8 20.3-6.5 37.2-21.4 47.6-41.9 11.4-22.3 13.7-48.8 6.3-70.9z"/><path d="m363.6 258.8 1.8 7.7s0 .1.1.2c.1.3.2.5.4.7.8 1.1 2.3 1.6 3.6 1.3l8-1.9c35.8-8.4 56.4-38.1 52.5-75.7-.4-3.9-.6-11.7-.6-18-6 2.8-13.6 6.2-17.5 7.5-35.6 12.6-55.8 45.5-48.3 78.2z"/><path d="m252.2 224.3c-6.4 41.2-8 82.9-5 124.4.2 3.1 2.8 5.6 6 5.6h.4c3.3-.2 5.8-3.1 5.6-6.4-2.6-37.4-1.4-74.9 3.6-112-3.9-3.5-7.5-7.4-10.6-11.6z"/><path d="m119.4 262 10.3 3.1c2.4.8 5 .1 6.7-1.8-2.1 8.1-3.8 16.2-5.2 24.3-.6 3.3 1.5 6.4 4.8 7.1.4.1.7.1 1.1.1 2.9 0 5.4-2.1 5.9-5 10-58.9 39.3-116.7 84.8-167 30.8-34.1 67.4-62.9 105.7-83.6-27.6 29.4-49.7 68.5-64.9 115.5-1.4 4.3-2.7 8.7-4 13.1 4.2-.4 8.4-.6 12.6-.4.9-3 1.8-6 2.8-9 16.1-50 40.3-90.7 70.7-119.5-13.8 31.8-20.5 68.4-20.1 109.2.2 14.3 1.2 28.5 3 42.7 6.8 6.7 12.2 14.7 15.8 23.5-4.2-21.9-6.5-44-6.9-66.3-.5-47.9 9.2-89.6 29-124.1 1.7-2.9 1.3-6.5-.8-9-2.2-2.7-5.9-3.6-9.1-2.3-51.6 21-102.1 57.2-142.8 102.2-35.1 38.8-60.9 81.9-76 126.7 6.8-39.8-17-80.3-59.3-98.6-5.4-2.3-16.8-8.4-24.6-12.7-.7 8.6-1.7 20.7-2.7 26.2-8.6 49.8 16.2 91.3 63.2 105.6z"/><path d="m345.2 249.6c4.3 16.5 9.6 33.1 15.8 49.7 1.2 3.1 4.6 4.7 7.7 3.5s4.7-4.6 3.5-7.7c-6.9-18.4-12.6-37.1-17.3-56.2-1.3 4.9-4.9 8.9-9.7 10.7z"/><path d="m313.7 243c6.4 0 12.9-.9 19.1-2.5l7.9-2.1c1.4-.3 2.4-1.4 2.6-2.8 0-.3 0-.5 0-.8 0-.1 0-.2-.1-.3l-2-7.6c-7.8-29.8-36.5-48.9-70-47.7h-.4c-.8 0-1.6.1-2.4.1-.4 0-.8.1-1.2.1-.6 0-1.2.1-1.8.2-1 .1-2.1.2-3.1.4-.3 0-.7.1-1 .1-4.3.5-11.9 1-18 1.3 2.9 5.6 6.4 12.7 7.8 16.3 2.3 5.7 5.2 11.2 8.7 16.3 0 0 .1.1.1.1.8 1.1 1.6 2.2 2.4 3.3.1.1.2.2.3.3 12.6 16.4 30.7 25.3 51.1 25.3z"/></g></svg>